<?xml version="1.0" encoding="utf-8"?>
<!-- Generator: Adobe Illustrator 26.2.1, SVG Export Plug-In . SVG Version: 6.00 Build 0)  -->
<svg version="1.1" id="logo" xmlns="http://www.w3.org/2000/svg" xmlns:xlink="http://www.w3.org/1999/xlink" x="0px" y="0px"
	 viewBox="0 0 397.7 78" style="enable-background:new 0 0 397.7 78;" xml:space="preserve">
<style type="text/css">
	.st0{fill:#15B4AC;}
</style>
<g id="_Grupo_">
	<path id="_Trazado_" class="st0" d="M38.5,5.1c0.3,0,0.1-0.4,0.1-0.6h-0.6C38,4.8,38,5.2,38.5,5.1z"/>
	<path id="_Trazado_2" class="st0" d="M24.3,5.6c0.2-0.2,0.5-0.4,0.3-0.7c-0.2-0.5-1.3-0.4-0.9,0.3C23.9,5.4,24,5.6,24.3,5.6z"/>
	<path id="_Trazado_3" class="st0" d="M34.2,9.5c-0.3,0-0.6,0.3-0.5,0.7c0,0,0,0.1,0,0.1c0,0.5,0.5,0.5,0.9,0.5s0.5-0.6,0.5-1
		C35,9.3,34.6,9.5,34.2,9.5z"/>
	<path id="_Trazado_4" class="st0" d="M27.3,10.3c0.1,0.2,0.5,0.8,0.9,0.6c0.4,0,0.7-0.3,0.7-0.7c0-0.1,0-0.2,0-0.2
		C28.4,9.4,27.4,9.5,27.3,10.3z"/>
	<path id="_Trazado_compuesto_" class="st0" d="M46.6,56.4l0-1c0.7,0.2,1.8,0.3,1.8,1.3C47.8,57.1,47.1,56.8,46.6,56.4z M48.7,55.3
		c0,0-1.3-0.5-2.2-0.9c-1.1,0.5-0.7,1.7-0.7,2.5c0.7,0.7,1.5,0.9,2.5,0.8l0.4-0.2c0.6-0.2,0.6-1.4,0.4-1.7L48.7,55.3"/>
	<path id="_Trazado_compuesto_2" class="st0" d="M46.2,59.7h-0.7c0.1-0.3,0.3-0.7,0.7-0.3V59.7z M45,57.5c0.4,0.7,0.3,1.5-0.2,2
		c-0.5-0.3-1.1,0.5-1.4,1c0.3,1.2,0.9-0.4,1.7,0.1c0.9-0.1,2.5,0.3,2.5-1.1L47,59.1C45.7,58.4,46.4,56.2,45,57.5"/>
	<path id="_Trazado_5" class="st0" d="M45.3,61.8l-0.5,1c-1.2,0-1.6-2.6-2.6-1l2.3,1.9c-0.3,0.3-0.9,0-1,0.7c0.2,0.4,0.6,0.3,1,0.3
		c0.3-0.5,0.7-1,1.1-1.4l0.1-0.3c0.3-0.1,0.1-0.4,0.1-0.6C45.7,62.1,45.5,61.8,45.3,61.8z"/>
	<path id="_Trazado_compuesto_3" class="st0" d="M16.8,28.2v0.1c-0.7,0.3-1.5,0.1-1.9-0.5C14.9,26.3,17.2,27.3,16.8,28.2z
		 M16.7,29.2c1-0.2,0.5-1.4,1.6-1.7l0.3-0.1L18,26.6c-0.9,1.9-1.4-1.1-2.8-0.2c-0.6,0.4-0.6,1-0.9,1.6C14.5,29,15.7,29.3,16.7,29.2"
		/>
	<path id="_Trazado_compuesto_4" class="st0" d="M14.2,56.3c-0.3-1.2,1.2-1.7,2.1-1.2C16.1,55.9,14.9,55.8,14.2,56.3z M16.8,55.5
		l0-0.1l-0.6-0.7c-0.9-0.3-1.9,0.2-2.4,0.9c0.1,0.8-0.1,1.8,0.7,2.2l1.2-1c0.4-0.4,1.5,0.3,1.4-0.7v0L16.8,55.5"/>
	<path id="_Trazado_compuesto_5" class="st0" d="M46.9,25.3c0.2,0.5-0.2,0.7-0.5,1c-0.3,0-0.6-0.1-0.8-0.3
		C45.7,25.3,46.5,25.2,46.9,25.3z M42.2,22.2c-0.2,1.6,1.6,2.9,2.3,4.2l0.2-0.1l0.1,1.4c0.5-0.7,1-0.9,2-0.8c0.5-0.3,0.8-1,0.7-1.6
		c-0.8-3.3-2.6,1.9-3.9-0.8c-0.5-0.3,0.1-0.7,0.3-0.9c0.2,0.2,0.5,0.4,0.8,0.3c0-0.4-0.1-1.3,0.6-1.4c0.5,0.4,0.3,1.2,0.8,1.4
		c0-0.3,0.6-0.7,0.2-1c-0.9-2.9-2.3,0.9-3.6,0.3l2-2.1c-0.7-0.5-1,0.6-1.6,0.9c-2.2,0,0.2-1.6,0.3-2.4c-1,0-1.9,1.7-2.8,2.2
		C41.1,22.9,41.8,21.3,42.2,22.2"/>
	<path id="_Trazado_6" class="st0" d="M20.4,23.5c0.6-0.7,1.8-1.4,1.1-2.2l-0.6,1.1c-0.3,0.5-0.8,0.5-1.1,0c0,0,0.1-0.2,0.3-0.2
		v-0.9h-0.3c0,0.2-0.1,0.5-0.3,0.7c-0.3,0-0.6-0.1-0.8-0.3c-0.3-0.9,0.9-1,1.1-1.4c-1-0.5-1.6,1-1.9,1.7
		C19,21.9,19.4,23.4,20.4,23.5z"/>
	<path id="_Trazado_7" class="st0" d="M18.8,25.8c0.5-0.7,0.6-1.5-0.1-2.1c-0.3-0.3-1.1-0.4-1.1-1c-0.4,0-0.7,0.2-0.8,0.6l1.6,0.9
		c0.1,0.4,0.8,0.8,0.3,1.2c-1.1,0.6-1.9-0.7-2.6-1.1l-0.3,0.5C16.6,25.4,17.8,26.4,18.8,25.8z"/>
	<path id="_Trazado_8" class="st0" d="M46.7,27.2c-0.9,0.3-1.4,0.9-1.2,1.9c0,0.3,0.3,0.5,0.6,0.5c0,0,0.1,0,0.1,0l-0.4-0.9
		c0.4-0.9,1.4-0.9,2-0.8c1.4,2.1-1.4,1.4-1.7,2.8c0.3,2.4,2.4,0,3.6,0.8c-0.9,0.7-2,0.7-3,1.1c0.9,0.3,0,1.6,1.1,1.7
		c0.3-0.4-0.4-0.8-0.3-1.2c0.7-0.5,1.6-0.9,2.5-0.9c-0.3-0.7-0.2-0.9-0.5-1.6c-0.8,0.3-1.6,0.7-2.5,0.8c-0.2-0.2-0.5-0.4-0.5-0.7
		c0.6-0.7,1.5-1,2.3-1.1l-0.3-1.4C48.3,27.4,47.5,27,46.7,27.2z"/>
	<path id="_Trazado_compuesto_6" class="st0" d="M14.2,30.9c0.2,0,0.3,0.2,0.5,0.3v0.5c-0.5,0.3-1,0-1.4-0.3
		C13.4,31,13.8,30.5,14.2,30.9z M15.7,32.8c0.2-0.6-0.2-0.7-0.6-0.8c0.5-0.4,1.4-1,1.1-1.7c-1,1.5-1.5-0.8-2.6-0.1
		c-0.4,0.8-1.2,1.5-1,2.3C13.7,32.1,14.9,33.2,15.7,32.8"/>
	<path id="_Trazado_9" class="st0" d="M30.2,32c-0.2,0.1-0.3,0.2-0.5,0.4C29.9,32.5,30.1,32.5,30.2,32z"/>
	<path id="_Trazado_10" class="st0" d="M30.7,31.8c0,0.3,0,0.5,0.1,0.6c0,0,0.4,0.2,0.7-0.3C31.2,31.9,30.9,31.8,30.7,31.8z"/>
	<path id="_Trazado_compuesto_7" class="st0" d="M13.3,33.8c0.5,0.2,0.9,0.2,1.2,0.7c0.1,0.3,0,0.7-0.3,0.8c0,0-0.1,0-0.1,0
		c-0.5-0.3-1.2,0-1.4-0.7C12.4,34.1,12.9,34.1,13.3,33.8z M13.9,35.9c0.7-0.2,1.4-0.9,1-1.7c-0.5-0.6-1.2-1.2-2.1-0.9
		c-0.3,0.3-0.9,0.9-0.8,1.4C12,35.6,13,36,13.9,35.9"/>
	<path id="_Trazado_11" class="st0" d="M47.5,35.3c0,0.7,0.4,1.5,1.2,1.4l-0.8-1.3l0.5-0.3c0.1,0.1,0.4,0.2,0.3,0.4
		c1.7,0.9-0.1-1.7,1.6-0.8l0.2,1.4l0.5-0.5c-0.2-0.5,0-1.2-0.3-1.7c-1,0.3-2,0.7-3.1,0.8L47.5,35.3z"/>
	<path id="_Trazado_12" class="st0" d="M14.9,50.4c0.3-1.4-0.8,0-1.2-0.4c0.6-0.6-0.4-1.2-0.3-1.4l1.1-0.3c0-1-2.1,0-2.8,0l1.6,1.2
		c-0.3,0.7-1.3,0.6-1.1,1.4c0.2,0,0.3,0,0.3,0.1C13.1,50.3,14,50.3,14.9,50.4z"/>
	<path id="_Trazado_13" class="st0" d="M37.7,47.6C37.1,48,38,48.5,38,48.8l0.6-0.7C38.3,48,38.2,47.5,37.7,47.6z"/>
	<path id="_Trazado_14" class="st0" d="M23.8,49.4c0.4-0.2,0.4-0.7,0.7-0.8c-0.6-0.4-1.3,0-1.6,0.5C23.2,49.3,23.4,49.5,23.8,49.4z"
		/>
	<path id="_Trazado_15" class="st0" d="M47.9,50c0.7,1,1.7,0.7,2.6,0.9v-0.6c-0.9,0-1.9,0-2.3-0.8c0.5-1.5,1.9-0.3,2.8-0.7v-0.3
		l-2.3-0.1C47.9,48.5,47.9,49.4,47.9,50z"/>
	<path id="_Trazado_16" class="st0" d="M47.5,51v0.8c0.5,0.1,1-0.2,1.2,0.3l-1.6,1.2l2.5,1.1c0-0.2,0.6-0.5,0.1-0.8
		c-0.5-0.1-1.1,0.3-1.4-0.3l1.9-1.2L47.5,51z"/>
	<path id="_Trazado_compuesto_8" class="st0" d="M13.1,52.8c-0.2-0.8,0.7-1,1.2-1.1c0.3,0.1,1.2,0.3,0.6,0.8
		C14.4,52.8,13.7,53.3,13.1,52.8z M14.7,53.6c0.6-0.3,1.2-0.9,0.9-1.7c-0.5-1.2-1.4-0.4-2.3-0.7c-0.3,0.4-0.9,0.7-0.7,1.2
		C12.6,53.6,13.8,54,14.7,53.6"/>
	<path id="_Trazado_17" class="st0" d="M21.4,63.2c-0.8-0.3-0.6,0.7-1.2,0.8l-0.2-1.3c-0.4,0-0.9,0.1-1.2-0.1c0.3-0.5,1-0.6,1.1-1.1
		c-0.9-0.4-1.8,1-2.5,1.6H19c0.8,0.7-0.2,1.5,0.1,2.2C19.9,64.5,21.3,63.9,21.4,63.2z"/>
	<path id="_Trazado_compuesto_9" class="st0" d="M42.2,65.9c-0.9,0-1-0.9-1.4-1.4c0.6-0.8,1.4,0,1.7,0.7
		C42.5,65.4,42.7,65.9,42.2,65.9z M41,63.6c-0.7,0.2-0.7,1-0.6,1.7c0.4,0.7,1,1.3,1.8,1.2s1.1-0.9,1-1.7C42.6,64.2,42,63.2,41,63.6"
		/>
	<path id="_Trazado_18" class="st0" d="M19.8,65.9c1.1,0.7,1.2-1.6,2.6-1.4c0.9,1-1,1.9-1.3,2.6c0.9,0.1,1.5-1.4,1.9-2.2
		C22.2,62.8,20.4,65.1,19.8,65.9z"/>
	<path id="_Trazado_compuesto_10" class="st0" d="M39.7,67.6h-0.7l-0.1-0.9c0.3-0.1,0.7,0,0.8,0.3c0,0,0,0.1,0,0.1L39.7,67.6z
		 M39.1,65c-0.7,0.1-0.2,0.8-0.5,1.1l-1.2-0.1c-0.3,0-0.5,0.3-0.5,0.6c0,0,0,0.1,0,0.1c0.3,0.1,0.5-0.2,0.8-0.3
		c1.2,0.1,0.2,1.4,0.9,1.9c0.9,0.5,1.7-0.4,2.2-1C39.9,66.7,39.9,65.3,39.1,65"/>
	<path id="_Trazado_19" class="st0" d="M24.1,65.3c-0.9,0.7-0.9,1.9-1.6,2.8h0.8c0-1,0.7-1.7,1.2-2.5L24.1,65.3z"/>
	<path id="_Trazado_compuesto_11" class="st0" d="M28.8,68.7l-0.3-0.5c0.2,0,0.4,0,0.5,0.1S28.9,68.6,28.8,68.7z M25.3,68.6
		c-0.3-0.7-0.2-1.9,0.8-1.7C26,67.4,26.2,68.6,25.3,68.6 M28.3,67.5c-0.5-0.9-1.7-1.2-2.8-1.2c-0.8,0-1.2,0.9-1.4,1.6
		c0.3,1,1.2,1.6,2.2,1.6c0.2-0.8,0-1.8,0.9-2.2l1.1,2.5c0.7,0,1.2,0.9,1.9,0.3L29,69.2l1.3-1.9C29.6,67.4,29,67.9,28.3,67.5"/>
	<path id="_Trazado_20" class="st0" d="M31,67.3v1.6c1.4,0.4-0.1-1.6,1.2-1.2c0.4,0.3,0.6,0.8,0.5,1.2c-0.1,0.8-0.9,1-1.6,0.8V70
		c0.2,0.2,0.3,0.5,0.7,0.3c0.7-0.1,1.8-0.9,1.4-1.9C33.4,67,31.9,67.4,31,67.3z"/>
	<path id="_Trazado_21" class="st0" d="M12,56.9c-0.3-1.2-0.7-2.3-1.4-3.3C11.1,54.8,11.2,56,12,56.9z"/>
	<path id="_Trazado_22" class="st0" d="M10.3,55.9L10,55.1C10.1,55.4,10.2,55.6,10.3,55.9z"/>
	<path id="_Trazado_23" class="st0" d="M10.1,57.3l-0.8-1.6C9.5,56.2,9.8,56.7,10.1,57.3z"/>
	<path id="_Trazado_24" class="st0" d="M12.1,60.2c0,0.1,0.1,0.2,0.1,0.3l0,0L12.1,60.2z"/>
	<path id="_Trazado_25" class="st0" d="M15.4,63.9c-0.1-1.3-1-2.4-2.1-3.3C13.5,61.9,14.1,63.3,15.4,63.9z"/>
	<path id="_Trazado_26" class="st0" d="M12.1,62.7c-0.1-0.6-0.4-1.2-0.8-1.7C11.4,61.6,11.7,62.2,12.1,62.7z"/>
	<path id="_Trazado_27" class="st0" d="M11.4,63.4c0.2,1,0.7,2,1.3,3C12.6,65.2,12,64.3,11.4,63.4z"/>
	<path id="_Trazado_28" class="st0" d="M15.3,65.1c0,0.8,0.9,1,1.5,1.4C16.4,65.9,15.9,65.4,15.3,65.1z"/>
	<path id="_Trazado_29" class="st0" d="M19.6,67.8l-2.4-2.2C17.8,66.5,18.6,67.3,19.6,67.8z"/>
	<path id="_Trazado_30" class="st0" d="M16.1,68.2c0.1,0.1,0.3,0.2,0.4,0.3C16.3,68.5,16.2,68.3,16.1,68.2z"/>
	<path id="_Trazado_31" class="st0" d="M19.7,70.5c-0.5-0.9-1.1-1.6-1.9-2.2C18.4,69.2,19,70.2,19.7,70.5z"/>
	<path id="_Trazado_32" class="st0" d="M22.9,70.3c1.4,0.5,2.8,2.3,4.3,1.3c-1.7-0.8-3.3-1.4-5.1-2.1L22.9,70.3z"/>
	<path id="_Trazado_33" class="st0" d="M18.2,71.9l0.3-0.3c-0.6-0.3-1.2-0.6-1.8-0.8C17.1,71.2,17.7,71.6,18.2,71.9z"/>
	<path id="_Trazado_34" class="st0" d="M25.5,72.7c-1.2-0.7-2.6-1.1-3.8-1.7C22.8,71.9,24.2,72.3,25.5,72.7z"/>
	<path id="_Trazado_35" class="st0" d="M21.4,72c0.7,0.6,1.6,1,2.5,1.2L21.4,72z"/>
	<path id="_Trazado_36" class="st0" d="M28.6,73.7l0.1,0.1c0.2,0,0.5-0.1,0.7-0.1H28.6z"/>
	<path id="_Trazado_37" class="st0" d="M25.8,74.9c0.5,0.1,1,0.3,1.5,0.5C26.9,75.2,26.4,75,25.8,74.9z"/>
	<path id="_Trazado_38" class="st0" d="M51.1,57.6c0.8-0.9,1.7-1.9,1.8-2.8C52.1,55.6,51.2,56.6,51.1,57.6z"/>
	<path id="_Trazado_39" class="st0" d="M50.9,61.9c0.5-1,0.9-2,1.1-3.1C51.4,59.8,51.1,60.8,50.9,61.9z"/>
	<path id="_Trazado_40" class="st0" d="M49,61.6c0.1-0.1,0.2-0.1,0.3-0.2c0.3-0.7-0.4-0.4-0.7-0.5l-0.6,1
		C48.5,61.8,48.7,61.7,49,61.6z"/>
	<path id="_Trazado_41" class="st0" d="M45.5,65.5c0.9-0.6,1.6-1.3,2.1-2.3C46.7,63.8,45.9,64.6,45.5,65.5z"/>
	<path id="_Trazado_42" class="st0" d="M50.2,65.5c0.2-0.3,0.3-0.6,0.4-0.9C50.4,64.8,50.2,65.1,50.2,65.5z"/>
	<path id="_Trazado_43" class="st0" d="M44.3,70.2l3.2-3.8C46.1,67.3,45,68.6,44.3,70.2z"/>
	<path id="_Trazado_44" class="st0" d="M42.7,67.9c0.1,0,0.3-0.2,0.3-0.3L42.7,67.9L42.7,67.9z"/>
	<path id="_Trazado_45" class="st0" d="M48,68.7c-0.9,0.9-2,1.6-2.3,2.6C46.6,70.6,47.4,69.7,48,68.7z"/>
	<path id="_Trazado_46" class="st0" d="M37.4,71.4c1.8-0.2,3.4-1.3,4.9-2.4C40.3,69.1,38.8,70.2,37.4,71.4z"/>
	<path id="_Trazado_47" class="st0" d="M38.9,72.5l2.9-1.8C40.8,71.1,39.7,71.7,38.9,72.5z"/>
	<path id="_Trazado_48" class="st0" d="M36.2,71c-0.5,0-0.9,0.1-1.4,0.3l0.1,0.1C35.4,71.8,35.8,71.3,36.2,71z"/>
	<path id="_Trazado_49" class="st0" d="M40.1,72.9c0.7-0.1,1.3-0.5,1.8-0.9L40.1,72.9z"/>
	<path id="_Trazado_50" class="st0" d="M43.5,72.1c-0.5,0.1-0.8,0.5-0.9,0.9C42.9,72.8,43.3,72.5,43.5,72.1z"/>
	<path id="_Trazado_51" class="st0" d="M39.5,74.5C39.5,74.5,39.5,74.5,39.5,74.5c0.6-0.1,1-0.3,1.5-0.7
		C40.5,74,39.8,74.2,39.5,74.5z"/>
	<path id="_Trazado_52" class="st0" d="M36.9,74.6h-0.3c-0.9,0.5-1.8,1.5-2.8,1.5c0,0,0,0,0-0.1l0,0c-0.1-0.2,0-0.4,0.2-0.6
		c-0.7,0.1-1.3,0.5-1.8,1l0.3,0.3C34.3,77,35.7,75.9,36.9,74.6z"/>
	<polygon id="_Trazado_53" class="st0" points="5.8,48 6.4,47.4 5.6,48 	"/>
	<path id="_Trazado_compuesto_12" class="st0" d="M60.1,47L59.9,48c-1.7-1.6-4.3-3.4-7.1-2.2V46c1.6,0.4,3.4,0.3,4.8,1.2v2.9
		c-1.3-1-3.1-0.8-4.5-0.1c-2.1,1.2-2.4,3.4-3.2,5.4l-1.7,4c-0.7,1.2-1,2-2,3.3l-0.4,0.6c-4.1,5.2-9.7,7.9-16.5,7.3
		c-6.2-0.7-12.4-5.1-14.9-11.1c-2.2-4.4-3.5-9.2-3.7-14.1C8,45.8,4.9,47,3,48.9c-1.1-1.9,2-4.1-1.3-5c-0.8-0.5-0.2-1.3,0-1.8
		c2.6-0.9,0.7-3.3,1.4-4.7c1.7,1.9,5,2.4,7.5,2.3v1c0-1,0.2-2.1,0.3-3.1l-0.3,1.7c-3.3,0.5-6.2-2.1-6.2-2.1l0.8-2
		c1.4,2.3,5.4,0,6.4-1.5l0,0.3c0.9-3.8,2.4-7.3,4.4-10.6c2-4.9,7.5-6.8,10.4-10.6c3.4-0.4,6.9-0.6,10.1,0.2c1.3,3,4.9,3.9,7.3,6
		c3.3,4.4,5.7,9.3,7.3,14.5c1.1,1,2.2,2.1,3.9,1.8c0.7,0,1.4-0.2,2-0.6c-0.1,1.2-0.2,3.1-1.9,3.4L53,38.7c1,0.7,2.2,0,3.3,0
		c0.9-0.7,2.1-1.4,2.6-2.3c0.8,0.7,0.4,1.7,0.3,2.6c-1.3,1.3-3.4,1.1-4.8,2c1.9,0.7,4.9-2.6,6.1,0.3C61.4,43.7,58.3,44.9,60.1,47z
		 M56.5,53.8c-0.5,0.6-1.4,0.1-2,0c-0.3-0.6-0.7-1.4-0.3-2.1c0.5-0.4,1.4-1,1.9-0.2c0,0.4,0.6,0.8,0.1,1.2h-0.9
		c0-0.3-0.2-0.3-0.3-0.5h-0.3c-0.5,0.5,0.1,1.2,0.7,1.4c0.8,0.2,1.6-0.2,1.8-1c0,0,0,0,0-0.1c0-0.9-0.5-1.6-1.2-2
		c-1.9-0.5-3.3,1.6-4.2,2.3c0.4-1.2,1.6-1.9,2.6-2.5c1-0.1,2.3-0.1,2.8,0.9C57.5,52.2,57.3,53.2,56.5,53.8 M53.9,58.1
		c-0.1-0.9-0.6-2.2,0.3-3C54.3,56,54,57.1,53.9,58.1 M51.1,57.9c0-0.1,0-0.2,0-0.3c-0.2,0.2-0.3,0.4-0.5,0.7
		c-0.1-1.3,1.4-2.5,2.3-3.7c0,0,0,0.1,0,0.1c0.2-0.2,0.4-0.5,0.6-0.7C53.4,55.3,51.9,56.6,51.1,57.9 M53.5,59.9l-1,2l1-3.1V59.9
		 M50.8,63.1c0-0.4,0-0.8,0-1.1c-0.1,0.3-0.3,0.6-0.4,0.9c0-1.9,0.7-3.5,1.7-5c0,0.4-0.1,0.8-0.2,1.1c0.2-0.4,0.4-0.7,0.7-1.1
		C52.4,59.7,51.8,61.5,50.8,63.1 M50.1,66.3c0-0.3,0.1-0.6,0.1-0.9c-0.1,0.3-0.4,0.5-0.5,0.8c0.2-0.7,0-1.8,0.9-1.9c0,0,0,0.1,0,0.1
		c0.1-0.1,0.3-0.2,0.5-0.2C51.1,65,50.5,65.7,50.1,66.3 M45.7,71.6c0-0.1,0-0.2,0-0.2c-0.1,0.1-0.3,0.2-0.4,0.4
		c0.1-1.5,2.5-2.3,3.1-3.9c-0.1,0.3-0.2,0.6-0.4,0.9c0.4-0.3,0.7-0.8,0.9-1.2C48.5,69.2,47.1,70.3,45.7,71.6 M47.8,67.2l-1.7,2.3
		l-1,0.9L47.8,67.2 M47.8,62l0.8-1.4c0,0.1,0,0.2,0.1,0.2l0.3-0.5c0,0.7,1.2-0.1,0.8,0.8c-0.2,0.2-0.5,0.4-0.8,0.5
		C48.7,61.9,48.2,62,47.8,62 M46.1,66.1l1.7-1.7C47.4,65.2,46.8,65.6,46.1,66.1 M48.1,64.3c-0.4,0.8-1.1,1.2-1.8,1.7L48.1,64.3
		 M47.9,63.2c-0.5,1-1.5,1.9-2.5,2.6c0,0,0-0.1,0-0.2c-0.1,0.1-0.2,0.1-0.3,0.2c0.2-1,1.4-2.1,2.3-2.5l0,0
		C47.7,63.3,47.9,63.2,47.9,63.2 M43.9,70.6c0.4-1.6,2.1-3.8,3.9-4.7l-0.3,0.4c0.2-0.1,0.4-0.3,0.7-0.4l-4.1,4.9
		c0-0.2,0.1-0.5,0.2-0.7L43.9,70.6 M44.1,68.8v0.1l-0.5,0.5L44.1,68.8 M43.9,68.7l-0.5,0.4l0.5-0.6V68.7 M42.4,73.6
		c0-0.2,0.1-0.4,0.1-0.5c0,0-0.1,0.1-0.2,0.1c0.1-0.7,0.5-1.6,1.4-1.4c0,0.1-0.1,0.2-0.2,0.3c0.1,0,0.2,0,0.3,0
		C43.5,72.7,43,73.3,42.4,73.6 M39,73.5l1.1-0.6c-0.3,0.1-0.7,0.1-1,0.2l3.3-1.7c-0.1,0.2-0.3,0.4-0.5,0.6l0.5-0.3
		C41.7,72.8,40.3,73.3,39,73.5 M41.1,73.8c0.1,0.6-1,1-1.6,1.3c-0.1-0.2-0.1-0.4,0-0.6c-0.2-0.7,1-0.8,1.6-1.1
		C41.2,73.6,41.1,73.7,41.1,73.8L41.1,73.8 M38.2,72.9c1.2-1.2,2.6-2.4,4.3-2.6l-0.7,0.4c0.2-0.1,0.5-0.1,0.8-0.2L38,73.3
		c0.3-0.3,0.6-0.6,0.9-0.9L38.2,72.9 M43.1,67.6c0.2,0,0,0.4-0.3,0.5h-0.3l0.1-0.1h-0.2L43.1,67.6C43,67.5,43,67.6,43.1,67.6
		L43.1,67.6 M37.3,71.4c1.4-1.2,3.1-2.6,5.2-2.5c-0.1,0-0.1,0.1-0.2,0.2h0.3c-1.6,1.1-3.4,2.5-5.5,2.6l0.4-0.3L37.3,71.4 M32.5,77
		l-0.3-0.4c0,0,0,0,0.1-0.1v0c0.5-0.6,1.1-1.1,1.9-1.1c0,0,0,0-0.1,0.1h0.1c-0.2,0.2-0.4,0.4-0.4,0.6c0.9,0,1.7-0.9,2.6-1.4h0.5l0,0
		h0.2C35.9,75.9,34.4,77.1,32.5,77 M30.8,75.1c1.5-0.2,2.8-0.9,4.3-0.9C33.7,74.5,32.5,75.5,30.8,75.1 M29.7,74.6
		c1.2-0.2,2.5-1.6,4-0.9C32.3,74,31.2,74.6,29.7,74.6 M34.8,72.7c-1.9,0.1-3.9-0.8-5.9-0.5C30.6,71.8,32.8,72.6,34.8,72.7 M35,72.2
		l-3.3-0.7l0.3-0.1L35,72.2 M34.8,71.2c0.6-0.3,1.2-0.5,1.9-0.5c-0.1,0-0.3,0.1-0.4,0.3h0.2c-0.6,0.2-1.1,1.3-1.7,0.7l-0.2-0.2
		l0.4-0.2L34.8,71.2 M28.7,73.8L28.7,73.8l-0.6-0.6c0.7,0,1.7-0.1,2.6,0.1c-0.4,0.1-0.8,0.2-1.2,0.3c0.6,0,1.2,0,1.8,0.1
		c-0.7,0.1-1.4,0.3-2.1,0.5L28.7,73.8 M23.6,74.5c0.7,0.2,1.5,0.2,2.3,0.4c-0.9-0.2-1.7-0.5-2.5-0.9c1.5,0.4,3.4,0.2,4.5,1.6
		c-0.2-0.1-0.4-0.1-0.6-0.2c0.4,0.2,0.7,0.5,1,0.8C27.1,75.6,25.1,75.2,23.6,74.5 M26.2,73.1c-0.2-0.1-0.5-0.2-0.7-0.3
		c0.4,0.2,0.7,0.5,1,0.8c-1.6-0.8-4.2-1.3-5.5-2.9c0.2,0.1,0.5,0.3,0.7,0.4c-0.3-0.2-0.6-0.4-0.8-0.7C22.5,71.4,24.6,71.7,26.2,73.1
		 M27.8,71.9c-1.7,1.2-3.2-0.8-4.7-1.3l-1-1.1l0.1,0l-0.2-0.3c1.9,0.8,3.7,1.4,5.4,2.3l-0.1,0.1C27.4,71.7,27.6,71.8,27.8,71.9
		 M21,71.9l0.4,0.2c-0.2-0.1-0.3-0.3-0.5-0.5l4.5,2.2c-0.5-0.2-1-0.3-1.6-0.5l1.9,0.9C24,73.6,21.9,73.4,21,71.9 M18.8,68.3l1.1,0.9
		l0.3,0.3L18.8,68.3 M16.3,67.5c0.5,0.3,0.9,0.6,1.4,0.9c-0.3-0.4-0.8-0.8-1.2-1c1.3,0.8,2.8,1.8,3.3,3.3c0,0-0.1,0-0.1-0.1
		c0,0.1,0.1,0.3,0.2,0.4C18.8,70.5,17.9,68.3,16.3,67.5 M19.3,72.6l-0.8-0.7l-0.3,0.3c-0.9-0.5-1.8-1.2-2.5-2
		c-0.2-0.2-0.3-0.4-0.5-0.6c0.1,0.2,0.3,0.4,0.5,0.6c0.3,0.3,0.6,0.5,1,0.6c-0.3-0.3-0.6-0.6-0.8-0.9c-0.2-0.1-0.3-0.3-0.5-0.5
		c0.1,0.2,0.3,0.4,0.5,0.5c1.1,1,2.6,0.5,3.4,2.2l-0.8-0.7l0,0C18.9,71.8,19.1,72.2,19.3,72.6 M16.1,68.3c-0.3-0.3-0.7-0.6-0.9-0.9
		c0.9,0.5,1.7,1.1,2.4,1.9c-0.3-0.1-0.7-0.4-1-0.6c0.3,0.3,0.6,0.5,0.9,0.9c-0.9-0.5-1.8-1.1-2.5-2C15.4,67.7,15.8,68,16.1,68.3
		 M17.2,66.8c-0.1-0.1-0.2-0.2-0.4-0.3c0.1,0.1,0.2,0.2,0.2,0.4c-0.7-0.6-2.1-0.7-2-1.8c0.1,0,0.1,0.1,0.2,0.1c0,0,0-0.1,0-0.1
		C16.1,65.3,16.8,65.9,17.2,66.8 M20.3,69.2l-1.4-1.1l1.1,0.8L20.3,69.2 M17.2,65.3l2.8,2.6c-0.1,0-0.2-0.1-0.3-0.2l0.3,0.3
		c-1.1-0.5-2.5-1.5-2.9-2.8l0.2,0.2C17.3,65.5,17.2,65.4,17.2,65.3 M13,60.4c0.1,0.1,0.2,0.1,0.3,0.2v0c1.2,0.9,2.2,2,2.3,3.4
		c-0.1,0-0.1-0.1-0.2-0.1v0.1C13.9,63.3,13.3,61.8,13,60.4 M13,61.6l1.1,2.5C13.5,63.8,13.4,62.4,13,61.6 M12.7,61.5l1.1,2.6
		C13.1,63.7,13,62.3,12.7,61.5 M12.9,66.8c-0.1-0.1-0.2-0.3-0.3-0.5c0,0.2,0,0.4,0,0.6c-0.9-1.3-1.6-2.8-1.7-4.4
		c0.1,0.3,0.3,0.6,0.5,0.9c0-0.3-0.1-0.5-0.1-0.8C12,64,13.2,65.1,12.9,66.8 M10.3,57.8c-0.8-0.8-1.3-1.9-1.7-2.9H9l0.3,0.8
		c0-0.1-0.1-0.2-0.1-0.3h0.2l1.3,2.8c-0.3-0.3-0.5-0.6-0.7-0.9L10.3,57.8 M8.5,56.4l0.5,1.7C8.5,57.7,8.3,57,8.5,56.4 M7.9,56
		l0.5,1.8C7.9,57.3,7.7,56.6,7.9,56 M6.2,54.6c-0.8-0.8-0.9-1.8-0.5-2.8c1-1.5,4.1-1.9,5,0.3v0.3c-1-1.1-2.5-1.9-3.8-1.1
		c-0.9,0.5-0.9,1.6-0.6,2.3c0.3,0.4,0.9,0.7,1.3,0.3l0.5-0.5l-0.5-0.4c-0.1,0.2-0.5,0-0.7,0.1c-0.3-0.1-0.1-0.5-0.1-0.7
		c0.3-0.6,1-0.8,1.6-0.5c0.6,0.6,0.9,1.6,0.2,2.2C8.3,55.1,6.9,54.9,6.2,54.6 M12,56.9L12,56.9c-1.1-1-1.2-2.6-1.8-3.9
		c0.2,0.2,0.3,0.4,0.5,0.6v0c1,1,1.4,2.4,1.7,3.8C12.2,57.2,12.1,57.1,12,56.9 M12.3,60.4c0,0.1-0.7-0.4-0.5-0.9l0.3,0.6
		c0-0.1,0-0.2,0-0.3l0.5,0.8C12.6,60.7,12.4,60.6,12.3,60.4 M10.6,56.5c-0.3-0.4-1.3-1.6-1.1-2.6l0.5,1.3c0-0.2-0.1-0.5,0-0.8l1,2.6
		c-0.2-0.3-0.5-0.7-0.7-1L10.6,56.5 M12.3,63.3c-0.7-0.8-1.2-1.7-1.4-2.7c0.2,0.1,0.3,0.2,0.5,0.4c0,0,0-0.1,0-0.2
		c0.9,0.4,1.1,1.7,1.4,2.6c-0.2-0.2-0.4-0.5-0.5-0.7L12.3,63.3 M5.1,51.6c-0.1,0.2-0.4-3-0.4-3c1.7-1.4,3.7-2.3,5.9-2.7l0.7,4.9
		C11.1,50.7,7.3,48.4,5.1,51.6 M6.4,31.5c0.7,0,1.8-0.2,1.9,0.8c0.1,0.4-0.1,0.9-0.5,1.1H7.3l-0.2-1.1c-0.6-0.1-1.2,0.2-1.3,0.8
		c0,0,0,0.1,0,0.1c0,0.8,0.6,1.6,1.4,1.7c1.4,0,2.5-0.6,3.4-1.4c-0.2,0.9-1.6,1.6-2.6,2c-1.2,0-2.5-0.4-2.9-1.6
		C4.5,33,5.5,31.9,6.4,31.5 M8.1,30.9H7.8c-0.4-0.3,0.3-0.3,0.5-0.5C8.3,30.6,8.4,30.8,8.1,30.9 M8.5,27.6c0.3,0.7-0.3,1.7-0.9,2.5
		c-0.4,0-0.5,0.6-0.9,0.5C7,29.5,7.4,28.4,8.5,27.6 M11.4,22.9c0.1,1.1-1.7,2-2.6,2.8C8.9,24.7,10.6,23.8,11.4,22.9 M12.4,20.7
		L9.1,24C9.7,22.7,10.8,20.9,12.4,20.7 M10.1,32.9c1-1.7,1.8-3.7,2.1-5.7C12.8,29.2,11.5,31.3,10.1,32.9 M10.2,28.2l2.2-4.2
		C12.1,25.6,11.3,27,10.2,28.2 M9.4,30.8L9,31.1c0-0.8,0-1.6,0.8-1.7C10.1,29.7,9.7,30.3,9.4,30.8 M9.8,27.6
		c-0.1-1.5,0.8-2.6,1.8-3.6C11,25.1,10.5,26.4,9.8,27.6 M13.7,23l-0.5,2.4c0,0.2,0,0.5-0.1,0.7l0.1-0.7C13.2,24.6,13,23.5,13.7,23
		 M14.8,22.3c-0.1,1.1-0.4,2.3-0.9,3.3C13.9,24.5,14.2,23.3,14.8,22.3 M15.5,18.6c-0.6,0.5-0.9,1.5-1.7,2.1
		C13.9,20.2,14.5,18.8,15.5,18.6 M16.9,20.5c-0.3,0.5-0.6,1-0.9,1.5C15.7,21.6,16.4,20.7,16.9,20.5 M14,21.3
		c0.8-0.8,1.8-2.6,3.3-2.6C16.7,20.1,15.2,20.8,14,21.3 M18.1,16.3c-1.1,1.1-2.5,1.4-3.9,1.7C15.2,17,16.7,16.5,18.1,16.3 M19.3,15
		l-4.6,1.7C15.2,15.7,17.4,14.9,19.3,15 M22.3,14.6c-1,1.6-2.6,3.2-4.6,3.3C18.6,16.6,20.4,14.7,22.3,14.6 M31.5,3.7V4H31V3.7H31.5
		 M19.5,8.9c-0.6-0.3-0.5-1-0.3-1.4l0.2-0.2C18.2,6.9,16.9,6,15.4,6c0.4-0.5,1.3-0.4,1.8-0.2c0.2,0.2,0.2,0.7,0.7,0.5
		c0.9-0.4-0.6-1.6,0.8-1.3C19.2,6,19,6.8,20.1,7.3l-1,0.7c0.4,0.7,1.2,1.4,2,0.9c0.6-2,2.7,0.1,3.3-1.9c0.9,0.2,1.7,1.3,2.6,0.3
		c0.9-2.2,2.4,1.5,3.6-0.7c0-0.6,0.7-1.2,0-1.7c-0.4,0-0.6,0.6-0.9,0.7c-0.2-0.5-0.3-1.3-1-1c0.7-0.4,0.2-1.5,1.4-1.2
		c-0.3-0.9,0.2-1.6,1.1-2.2c0.4,0.2,0.7,0.6,0.9,0.9c0,0.3,0.1,0.7-0.3,0.9c-0.2-0.5-0.9-0.3-1.1-0.1c-0.4,0.3-0.6,0.8-0.5,1.2
		c0.3,0.3,0.7,0.8,1.3,0.7c0.7-0.4,0.5-1.4,1.2-1.4c0.7,0.5,0,1.3,0.5,1.9c-0.6,0.1-1.1-0.8-1.6,0c0.1,0.7,0.3,1.6,1.1,1.9
		c0.7,0,1.4,0,1.9-0.7c0.7,0.7,1.7,1.3,2.6,0.7c1.4-1.5,1.9,1.9,3.6,0.5c0.2,0.7,1,1.1,1.7,0.9c0.2,0,0.3-0.1,0.5-0.3
		c0.2-0.1,0.4-0.5,0.7-0.5c-0.2,0.6-0.6,1-1.2,1.2c-1.6,0.1-2.2-1.4-3.9-0.9c-0.1-0.3-0.4-0.6-0.6-0.8c-0.9,0.3-1.6,1-2.5,0.5
		c-1.1-1.5-3.1,1-4.2-0.9c-0.8,0.7-1.8,0.9-2.8,0.6c-0.2-0.2-0.5-0.3-0.8-0.2c-0.5,0.9-1.6,1.2-2.5,0.8c-1.2-0.7-1.9,1.7-3.1,0.5
		C21.5,9.3,20.4,9.9,19.5,8.9 M24,3.5c0.4,0.4,1.3,0.7,1.4,1.4c0.3,1.2-0.9,1.2-1.7,1.2c-0.9,0.4-0.7-0.5-0.9-0.9
		C23.3,4.7,23.1,3.4,24,3.5 M37.2,4c0.9-0.1,1.6-0.8,2.1,0.1l0.3,0.5c0.2,0.8-0.5,1.2-1.1,1.2C37.7,5.7,36.5,5.2,37.2,4 M43.9,5.4
		c0.9,1.2,1.7-0.8,3.1-0.1c-1.4,0-2.3,1.2-3.8,1.2v0.3h-0.8C43.6,6.9,42.9,5.4,43.9,5.4 M43.9,4.8c-0.4,0.2-0.9,0.5-1.2,0.8
		C43,5.2,43.5,4.9,43.9,4.8 M37.8,10.5h-0.9C36.9,10,37.7,10.1,37.8,10.5 M31.8,9.9c-0.3,0.2-0.6,0.1-1.1,0.1
		C31,9.8,31.5,9.7,31.8,9.9 M24.9,10.8c0-0.3,0.4-0.3,0.7-0.3c0,0.2-0.1,0.2-0.2,0.3H24.9 M24.4,13.5c-0.1,0.5-0.7,0.3-1,0.5
		l-0.1-0.1C23.7,13.6,24.1,13.5,24.4,13.5 M22.4,13.3l4.2-1.3h0.7L22.4,13.3 M31.5,11.6l-3.5,0.3l2.3-0.3H31.5 M34.2,11.8h-0.3
		l-1.4-0.1l-0.7-0.1h0.1l0.6,0L34.2,11.8 M40.8,12.3c-5.6-1.6-12.7-1.9-18.3,0.3v-1.6c-0.1,0-0.2-0.1-0.3-0.2
		c0.6-0.5,1.6-0.6,2.5-0.8c-0.5,0.2-0.9,0.6-1.1,1.1c0.6,0.6,1.5,0.2,2.2,0.3l1.4-1.1l-1.4-0.7c1.7-0.2,3.3-0.7,5.1-0.6
		c-0.5,0.2-1.1,0.2-1.4,0.8c0.1,0.9,1,0.5,1.6,0.9c0.8-0.1,1.9-0.2,2.1-1.1l-1.2-0.6l5,0.5c-0.4,0.3-1,0-1.2,0.7
		c0.7,0.7,1.7,1.4,2.9,0.9c0.5-0.5-0.1-0.9-0.5-1.2c1,0.1,2,0.4,3,0.8c-0.3,0.1-0.6,0.1-0.8,0.5C40.2,11.6,40.4,12.1,40.8,12.3
		 M39.4,14.3c0.9,0,1.2,1,1.6,1.6c-0.6-0.3-1.2-0.7-1.7-1.2L39.4,14.3 M20.7,10.4c6.1-3.2,15.4-2.8,21.4-0.3
		C35.5,8.1,27.4,7.7,20.7,10.4 M45.4,17.2c-0.8-0.3-1.3-0.8-2-1.3c-0.5,0.3,0.2,0.5,0.2,0.8l0.3,0.3c-1.1-0.4-2-1.1-2.6-2.1
		c0.5,0,1.3,1.1,2,0.9l-2-2C43.2,14.3,44.5,15.7,45.4,17.2 M45.8,15.5l-0.7-0.1h0.5L45.8,15.5 M46.5,19.6L45,18.6l0.9,0.1L46.5,19.6
		 M43.6,13.9c1,0.1,2,0.4,3,0.8l-3-0.3V13.9 M48.4,17.2l-1.8-1.1l1.6,0.6L48.4,17.2 M47.5,20c0.9,0.8,1.1,2,2,2.9
		C48.4,22.3,47.9,21.1,47.5,20 M50.3,23c-0.9-1.4-1.4-3-2.8-4.2C48.9,19.7,49.9,21.2,50.3,23 M50.6,19.4l1.4,1.9l-3.1-2.7L50.6,19.4
		 M55.9,29.5c-2.2-1.1-2.3-3.5-4.3-5.1C53.7,25.1,55.2,27.6,55.9,29.5 M54.6,29.7l0.3,0.2l-0.1,0.2L54.6,29.7 M52.6,31.4
		c1.2,0,0.9,1.7,1.4,2c-0.7,0-1.3-0.5-1.6-1.2L52.6,31.4 M51.5,25.4c1.4,1,1.6,2.6,2.1,4c0,0.1,0.1,0.2,0.1,0.4
		c0.1,0.4,0.3,0.8,0.6,1.1L54.1,31c-0.1-0.4-0.2-0.9-0.4-1.2c0-0.1-0.1-0.2-0.1-0.4C53,28.1,52.1,26.7,51.5,25.4 M50.9,21.5l1,0.9
		C51.3,22.4,50.9,22,50.9,21.5 M52,31.1l-0.1,0.2c-0.9-1.4-1.6-2.9-2-4.6C50.8,28,52.1,29.3,52,31.1 M57.3,32
		c0.5,1.2-0.7,2.2-1.6,2.6c-1.4,0.3-2.7-0.2-3.6-1.4c0.9,1.1,3,1.2,4.3,0.6c0.4-0.4,0.6-1,0.5-1.6c-0.4-0.5-1-1-1.7-0.6l-0.1,0.1
		c0.2,0.2,0.5,0.1,0.8,0.3c0,0.3-0.1,0.6-0.3,0.8c-0.5,0.1-1-0.2-1.1-0.7c-0.1-0.6,0.2-1.1,0.8-1.3C56.2,30.6,56.9,31.3,57.3,32
		 M61.6,41.1c-1.6-1.4-0.4-3.3-1.2-5c0-0.9-1.2-2.5-2-1.4v-0.5c0.5-1.6-0.7-2.9,0-4c-2-1.2-2.2-3.5-3.8-5c-1.3-3.4-2.8-7.1-5.9-9.4
		c0.3-0.5,0.3-1.1,0-1.6c-2.2-0.5-4.3-2.3-6.7-1.4c-0.1-1.5,1.4-1.9,1.7-3.3c1.7-0.9,2.1-3.2,4.2-3.3c0-0.6,0.9-1.3-0.1-1.7
		c-1.9,0.3-3.4-1.2-5.3-0.4c-1.7,2.4-1.6-1-3.1-1.4c-0.9-0.5-1.7,0.2-2.6,0.1c-1.2,0.4-0.3,1.9-1.2,2.5c-0.3,0-0.6-0.1-0.8-0.3
		c1.2-1.7-1.4-1.9-1.6-3.1c-0.6-0.9-1.5-1.7-2.6-1.6c-1.7,1.3-3.1,3-3.6,5.1c-0.7-0.9-1.1-1.7-1.9-2.8c-0.9-0.2-2.1-0.2-2.8,0.7
		c-1.5,0.9,0.5,2.5-0.8,3.3L21,5.1c-0.9-0.3-1.7-1-2.7-1.3c-0.9,1.6-3.1,0.2-4.1,1.7c-0.6,2.3,2.3,1.3,2.6,3.1
		c1.9,1.2,4,2.8,3.4,5.1c-3.8-0.7-6.8,2.3-9,5v0.9c-2.5,1.7-3.4,4.6-4.7,7c1.1,3.4-4.6,5.1-2.5,8.9c-0.7,0.1-0.8-1-1.6-0.7
		c-0.9,1.3-0.9,3.3-0.6,5c-0.6,1.2-2.5,2.1-1.7,3.8c3.3,1.6,0.1,5.8,2.7,7.8L3.8,51c0.1,0.8,0.3,1.9,0.5,2.8c0.4,1.1,1.3,2,2.5,2.5
		c0.2,0.5-0.3,0.7-0.3,0.9c1.3,1.6,2.1,3.7,2.8,5.6l0.8,0.5l1.6,3.9c0.9,1,0.2,2.6,1.7,3.4c0.3,0,0.7,0,0.9-0.3
		c1.9,1.6,4.3,2.9,5.8,4.8l0.8,0.2c1.4-1.1,2.7,0.7,4.2,0.6c2-0.3,4.2,4.1,5.4,0.5c0.4,0.3-0.2,0.7,0,1c1.7,0.5,3.4,0.5,5.1,0
		c2-1.4,5-1.5,7.2-2.9c2.4,0.4,3.7-2.7,5.6-4.1c2.4,0,2.6-2.9,3.9-4.3c0-2.7,2.9-3.9,3.3-6.6c0.9-1.2-0.6-3.9,1.3-4.3
		c1.6-1,1.9-2.8,2.1-4.5c0.7-0.4,1.8-1.1,2-2.1C60.4,45.6,62.2,44.1,61.6,41.1"/>
	<path id="_Trazado_compuesto_13" class="st0" d="M28.5,65.5c-3.7-0.8-7.3-3.6-8.9-7c2.2,0.3,3.5,1.3,6,0.9c0,0.1-0.1,0.3-0.2,0.3
		l1.1,0.6c-0.3,0.3-1,0.4-1.1,1c0.3,0.6,0.9,0.2,1.2,0.3c0.1,0.1-1,1,0,1.4c2.5-0.5,5.4,1,7.5-0.3c2.2,0,4.6,0.3,6.2-1.4h0.8
		C38,64.9,33.2,66.1,28.5,65.5z M19.2,57.5h1c0,0.3-0.2,0.4-0.5,0.3h-0.5V57.5 M17.1,53.3c0.6-0.6,2.1-0.8,3.1-0.5h0.7
		c1,1.4-1.1,1.9-1,3.3c0.3,0.6-0.4,0.7-0.8,0.6C18,56.2,17.8,54.4,17.1,53.3 M17,52.2c-3-7.8-1.5-17.6,2.4-24.4
		c0.1,0.5-0.3,1,0.5,1.4c-0.5,0-0.8,0.5-1,0.8c1,1.4,0.3,3.4,0.5,5.2l0.9,1.2c-0.3,3.4,0,6.1,0.3,9.6c-0.7,1.8-1.1,4.1,0,6
		C19.5,52.3,18.2,52.2,17,52.2 M29.9,20c5-0.6,9.2,1.7,12,5.6c4.8,7.6,6.2,16.9,3.9,25.6L42,51.3c0.1-6.8-0.4-13.4,0.3-19.6
		l-0.8-0.8c0.3-0.4,1.1-0.9,0.8-1.6l-1-0.7c1.1,0,0.5-1.1,0.7-1.7c-1.7-0.7-4.1,0-6.2-0.2c-0.8,0.3-0.3,1.1-0.3,1.6
		c0.2,0.1,0.2,0.4,0.5,0.3c-0.3,0.2-1.6,0.8-0.9,1.6c2.1-0.1,1,2.4,1.1,3.4c-0.4,0.5-1.3,0.7-1.7,0.1c-0.5-1-1.6-0.5-2.3-1
		c0.4-1.4,0.9-3-0.1-4.2c-0.8-0.8-2.2-0.8-3.1,0c-0.5,0.9-0.8,1.6-0.3,2.6c0.2,0.7,0.7,0.9,0.6,1.7c-1,0.4-2.2,0.4-2.6,1.6
		c-1.3-0.3-0.7-2.3-1.1-3.4c0.4,0,0.7-0.5,1-0.8c0.2-0.7-0.5-1.2-1-1.2c0.3-0.1,0.6-0.3,0.7-0.7c0-0.5,0.2-1.2-0.5-1.2l-6,0.2
		C21.4,23,26,20.6,29.9,20 M44.7,54.6c-0.3-1-0.7-2.2-1.9-2.4h-0.7v-0.3h3.4C45.4,52.8,45,53.7,44.7,54.6 M44.1,56.4l-0.9,0.3
		l-0.3-0.8C43.3,55.6,44.5,55.8,44.1,56.4 M34.2,51.3c0,0.3,0,0.6-0.3,0.8l-1.1-1.4L32.4,51L32,50.2C32.8,50.5,34.4,50,34.2,51.3
		 M31.9,47.4c1.4-0.6,1.6-3,2.8-3.3L35,46c-0.4,0.5-0.5,1.1-0.3,1.7H35l-0.8,0.8l-0.1-0.1l-1.1,1C33,48.5,32.4,48.2,31.9,47.4
		 M30,45.5l0.9,0.5c0.2,0,0.3,0,0.4,0.2L30.9,46C30.5,46.1,29.8,46.5,30,45.5 M29.6,44.3v0.5l-0.5-0.6L29.6,44.3 M29.2,30.2
		c-0.4-1.8,2.3-1.3,2.4-0.5C31.6,30.5,30,30.8,29.2,30.2 M31.6,31.6c0,0.2-0.1,0.3-0.2,0.5c0.1,0.1,0.1,0.2,0.2,0.3
		c-0.2,0.4-0.9,0.7-1.7,0.4l-0.2-0.4c0,0,0,0,0,0c-0.2-0.2-0.4-0.6-0.4-0.9l0-0.8c0.4-0.1,0.8,0.1,1,0.6c0,0.2,0,0.5-0.1,0.8
		c0.1-0.1,0.3-0.1,0.5-0.1c0-0.5,0.2-0.9,0.6-1.3C31.3,30.6,31.9,30.5,31.6,31.6 M32,42.4c-1.1-1-1.5-2.5-2-3.9c1.2-1.4,2,0.7,3.4,0
		c0,0.7-0.7,1.2-1.1,1.4C31.9,40.8,32.9,41.7,32,42.4 M33.6,43.5c-0.5,0-1.2,0.2-1.2-0.5c1.2-0.7,0.7-2.1,1.2-3.1
		C33.2,41.1,33.5,42.2,33.6,43.5 M32.4,37.6c-1.1-0.6-1.7,0.7-2.6,0.1c-0.4-0.9-0.6-1.8-0.5-2.8l0.8-0.5c-0.3-0.3-0.7-0.7-0.3-1.1
		c0.9-0.2,1.5,3,2.3,1c1-0.3,2.3-0.2,2.2,1C34.1,36.3,33.7,37.6,32.4,37.6 M36.6,43.8c-0.5,0.1-0.7,0.4-1.2,0.3
		c0.2-1-1.3-0.9-1.1-1.9L36.6,43.8 M37.9,33.9c0,0,0.1,0,0.2-0.1L37.9,33.9c0,0-0.1,0.1-0.1,0.1c0.3,0.5,0.8,1,1.2,1.4
		c0.8-0.3-0.1-0.7,0-1c0.3,0.4,0.6,1,1.4,0.8l-2.2,0.8c0.2-0.2,0.5-0.4,0.3-0.7c-0.8-0.2-1.2-0.9-1.7-0.9c-0.2,0-0.3,0.1-0.5,0.2
		c-0.1,0.1-0.3,0.2-0.4,0.4c0,0.6,0.7,0.9,1,1.2c0.5-0.2,0.5-0.7,1.1-0.1c-0.7,0.4-1.5,0.5-2.1,1.1c0-0.8-0.4-1.4-0.3-2.2
		c0.2-0.1,0.4-0.3,0.7-0.4c0.1-0.1,0.3-0.2,0.5-0.2C37.2,34.2,37.6,34.1,37.9,33.9 M41.2,27.9c-1.9,0-3.6,0.6-5.1,0l0.3-0.5h4.8
		L41.2,27.9 M41.4,33.6l-0.3-0.7h0.3V33.6 M40.8,32.3c-1.2,0.7-2.6,0.6-3.8,1.3v-2.6C38.5,32.8,41.4,28.3,40.8,32.3 M39.4,30.5
		c-0.6,0-1.2,0.7-1.7,0H39.4 M41.3,45.4c-0.5-2.5-3.8-1.8-4.3-4.3v-3.8c1.2-0.7,2.6-1,4-1.6C41.3,39,41.6,42,41.3,45.4 M42.2,56.4
		v0.5c-1.8,0-4,0.5-5.4-0.2C38.6,56.6,40.3,56.4,42.2,56.4 M41.3,55.8c-1.3,0.2-2.6,0.2-3.9,0C38.6,55.6,40.1,55.2,41.3,55.8
		 M37.5,54.8c1.3-0.2,2.6-0.2,3.9-0.1C40.2,55.2,38.7,55,37.5,54.8 M40.3,50.2c0.5-0.2,0.8-0.7,0.9-1.2l-0.1,2.8
		C39.8,51.9,40.8,50.7,40.3,50.2 M34.9,42.1c0-0.7,1.1-1.4,1.7-0.7c0.6,0.7,0.8,1.4,1.6,2C37.3,43.6,36.3,41.8,34.9,42.1 M37.2,45.4
		c0.6,0.3,0.9-0.4,0.8-0.9c0.6-0.2,1,0.2,1.4,0.5c-0.3,0-0.8-0.1-1.1,0.1c0.3,0.9,1.5,0.9,2.2,0.7l0.1,1.2c-0.2-0.1-0.5-0.1-0.8-0.1
		c-0.7,0.8,0.1,2.1-1.2,2c-0.1,0.3-0.6,0.4-0.5,0.8c0.3,0.2,0.5,0.2,0.7,0.6v0.2c-0.4,0.3-1.2,0.1-1.1-0.4c-0.3-0.7-0.7,0.2-1-0.3
		c0.8-0.7-0.5-1.4-1-1.4c0-1.4-0.4-2.8,1.2-3.6C36.9,44.9,36.7,45.4,37.2,45.4 M35,50.8c-0.2-0.7,0.3-1.1,0.7-1.4
		c0.3,0.1-0.6,0.4-0.3,0.8c0.3,0.9,2.6-0.1,1.6,1.6C36.3,51.1,35.6,51.9,35,50.8 M35.8,55.4l-0.7,0.3v-0.3H35.8 M35.1,53.9
		c0.5-0.5,1.2,0.2,1.4,0C36.2,54.8,35.9,53.3,35.1,53.9 M42.8,54.1l0.3,0.3h-0.5C42.7,54.3,42.8,54.2,42.8,54.1L42.8,54.1L42.8,54.1
		c0,0,0-0.2-0.1-0.2c-1.4-1.2-3.5,0.5-4.5-1.3c0-2.6,1.6-0.1,2.6,0c0.7,0.8,2.6-0.3,2.6,1.3c-0.1-0.1-0.2-0.2-0.3-0.2
		C43,53.8,42.8,53.9,42.8,54.1C42.8,54,42.8,54.1,42.8,54.1 M35.7,39.2l-0.2,1.4c-0.5,0-0.9,0-0.9-0.5C34.6,39.6,35.1,39,35.7,39.2
		 M35.2,38.7h-0.5l0.2-3.4C35.5,36.3,35,37.6,35.2,38.7 M28.5,36c0.1,0.3,0.2,0.6,0.1,0.9c0.5,2.3,1.7,4.3,2.8,6.4l1.4,1.2
		c-0.2,0-0.4,0.1-0.6,0.3v0.4c-0.9-0.3-1.8-0.9-1.9-1.7c-0.5-1.1-1.9-0.7-2-1.9c0.6-0.5,0.9-1.7,0.3-2.3c-0.8-0.7-0.2-1.6,0-2.5
		C28.6,36.7,28.5,36.4,28.5,36 M27.4,47.1l0.9-2.6c-0.2,0.8-0.2,1.6,0,2.4l0.5-1.3l1.4,3c0.2,0,0.1-0.3,0.1-0.5
		c0.5,0.3,0.3,1.1,0.1,1.6l-0.1,0.1c-0.1-0.3,0.1-0.6-0.1-0.8c-1.4,0.9,0.9,3.5-1.4,3.4C27.9,50.8,27.3,48.9,27.4,47.1 M27.9,55.5
		c0,0.1,0,0.4-0.2,0.5h-0.1C27.2,55.8,27.7,55.5,27.9,55.5 M27.7,42.8v0.3h-0.5v-0.5C27.3,42.6,27.6,42.5,27.7,42.8 M27.7,41.2
		l-0.1-1.9c0-0.1,0-0.3,0-0.4l0,0.4C27.8,39.9,28.4,40.5,27.7,41.2 M27.7,35.9l-0.3-0.5h0.5C28,35.6,27.9,35.8,27.7,35.9 M23.7,56.2
		c-0.2,0.3-0.1,0.8-0.2,1.2c-0.5,0.3-1.1,0.1-1.7,0.1C21.9,57.1,22.9,55.6,23.7,56.2 M21.5,55.2c0.3,0,0.8,0,0.7,0.4
		c-0.5,0.3-0.9,0.7-1.4,0.5C20.9,55.8,20.9,55.2,21.5,55.2 M22.2,53.3h-0.3c0-0.7-0.1-1.3-0.5-1.8C21.9,52,22,52.7,22.2,53.3
		 M25.3,51.2c-0.6-0.2-0.4,0.4-0.7,0.6c0.1,0.1,0.1,0.1,0,0c-0.1-0.1-0.4-0.3-0.6-0.1c-0.5,0.4-0.6,1.1-0.2,1.6h-0.6v-0.8h-0.5
		c1.2-0.4,1.4-2.4,2.8-1.9c-0.1,0.8,0,1.7,0.8,1.9v0.4c-0.2-0.6-0.8-0.1-1.1,0C25.4,52.3,25.4,51.7,25.3,51.2 M22.7,48
		c1-0.2,2.3,0,3-0.8c0,0.1-0.5,0.9-0.1,1.4c0.2,0,0.4-0.3,0.6-0.5c0,1.1,1.5,1.2,0.7,2.6l-0.7,0.6c-0.6-0.7,1-0.9,0.5-1.9
		c-0.9-0.7-1.8,0.6-2.3,0.2c-0.2,0-0.5-0.1-0.6,0.1c0,0.2,0,0.4,0.1,0.5l-0.8,0.5c-0.2-0.9-0.8-1.6-1.6-2.1h-0.8
		C21.3,47.8,22.3,49.1,22.7,48 M23.1,34c-1.1,0-2.3-0.6-3.1-0.8v-0.3C20.8,33.6,22,33.6,23.1,34 M25.3,28.3l-5.1,0.3
		c-0.2-0.7,0.2-0.6,0.6-0.8c1.6,0,3.1-0.1,4.5,0.1L25.3,28.3 M24.6,34.8v-0.3l0.5,0.3H24.6 M24.5,30.9c0.8,0.5,0.3,1.9,0.5,2.8
		c-1.3-0.1-2.6-0.4-3.9-0.9c-0.2-0.3-0.1-0.9-0.1-1.3C22,31.7,23.5,31.9,24.5,30.9 M21.2,29.4v-0.3l3,0.1L21.2,29.4 M22.3,30.3v-0.1
		c0.2,0,0.7-0.1,0.8,0.1H22.3 M23.5,30.9c-0.6,0.2-1.6,0.3-2.1-0.2C22,31.1,22.8,30.9,23.5,30.9 M22.6,35.9l-1.1-0.2
		c0.5-0.1,0.9-0.3,1-0.8C22.5,35.3,22.1,35.7,22.6,35.9 M24.1,44.2c0,1.2-1.2,1-1.6,2c-0.5-0.1-0.9,0.3-1.4,0.1l-0.2-9.9l4.1,0.9
		C26,39.9,23.8,41.6,24.1,44.2 M26.4,40.7c0.1,0.7-0.5,1.4-0.5,2.2c-1,0.9-0.3,2.7-2,3.3c1.2-0.7,0.9-3.3,1.6-4.5L26.4,40.7
		 M26.2,38.1l0.2-1.9l0.1,1.6L26.2,38.1 M26.5,38.8c0-0.3,0-1,0.5-0.8C27,38.5,26.9,39,26.5,38.8 M26.5,46h-0.3
		c-0.2-0.5-0.3-1.4,0.2-1.7C27.1,44.7,26.2,45.3,26.5,46 M26.2,56.9v0.4c-0.7-0.1-1.3,0.5-2-0.2C24.4,56.4,25.6,56.8,26.2,56.9
		 M23.1,54.8c1.4-0.9,2.9-0.2,4.3-1l0.2,0.1C26.9,55.9,24.3,54.8,23.1,54.8 M29.7,57.2c-0.4-1.4-1.8-2.1-1-3.9l0.5,0.5
		c0.2-0.1,0.1-0.3,0.1-0.5c0.2,0,0.4,0,0.5,0.2c-0.1,0.6-2,0.7-0.8,1.4c1.5-0.6,1.4,1.1,1.6,1.9c0.1,1.6-0.2,3.4,0.3,4.9h-1.4
		C31.7,60.1,29,59.1,29.7,57.2 M31.8,55.6h-0.3l0.1-0.6C31.9,55,31.7,55.4,31.8,55.6 M31.3,53.3l-0.1-0.1c0.2-0.3,0.7,0,0.8-0.5
		c-1-0.3-1.1-1.6-0.8-2.5c0.6,1.1,0.9,2.4,0.9,3.6C31.6,53.9,31.4,53.7,31.3,53.3 M32.7,56.7c-0.5-1.4,0.7-2.9,1.6-3.7
		c0.5,2.4-1.6,7.2,2.2,8.6c-1.2,0.2-1.9-0.9-3-0.5C33,59.5,34.6,57.4,32.7,56.7 M41.8,60.2c-1.9-0.4-4.2,0.2-6.3-0.4l-0.2-0.5
		c1.4-0.9,3.6,0.7,4.7-0.8l-0.3-0.3H43c0.4-0.1-0.1-0.9,0.5-0.6C42.9,58.5,42.7,59.6,41.8,60.2 M42.9,60.5
		c6.6-10.6,6.1-26.3-1.4-36.2c-3.2-3.7-7.4-5-12.3-4.5c-4.6,0.6-8.5,3.4-10.5,7.6l-0.6,1.1c-1.8,4.4-3.4,8.7-3.4,14.1
		c-0.5,4.7,1.1,8.7,2.1,12.9l0.3,0.6v0c2,5.8,7.1,10.6,13.5,10.7C35.6,67.1,39.9,64.4,42.9,60.5"/>
	<path id="_Trazado_54" class="st0" d="M12,38.8l-0.2-0.8c0.7-0.4,1.7,0.1,2.6,0.2v-0.8c-0.8,0.3-1.9,0.1-2.4-0.5l0.3-0.6
		c-0.9,0-0.9,1.3-1.1,2C11.3,38.7,11.6,38.9,12,38.8C12,38.8,12,38.8,12,38.8z"/>
	<path id="_Trazado_55" class="st0" d="M50.6,37.3c-1.1,0.2-0.9,2.2-2,1.9c-0.4-0.5,0-1.1,0.1-1.6h-0.5c-1.1,0.5,0.1,1.4,0.1,2
		c1.4,1,1.6-1,2.3-1.6l0.5,0.5c-0.1,0.3-0.5,0.5-0.3,0.8c0.3,0.1,0.6,0,0.8-0.3C51.5,38.4,51.4,37.6,50.6,37.3z"/>
	<path id="_Trazado_56" class="st0" d="M10.6,40.7c-0.1,1.6-0.1,3.2,0,4.7l0,0V40.7z"/>
	<path id="_Trazado_compuesto_14" class="st0" d="M13.3,41.1c0,0.2,0,0.3-0.1,0.3h-0.5C12.6,41.1,13,41.1,13.3,41.1z M12.1,41.8
		l1.9,0.9c0.2-0.1,0.1-0.3,0.1-0.5c-1.8-0.5,0.3-1.6,0-2.5c-0.9,0.3-1.6,0.9-2.5,1c0.1,0.8-0.9,1.3-0.3,2.1
		C11.9,42.8,11.6,42,12.1,41.8"/>
	<path id="_Trazado_compuesto_15" class="st0" d="M55.9,42.6c0.8-0.2,1.6-0.3,2.3-0.2C57.7,42.9,56.6,42.8,55.9,42.6z M52.6,42.6
		v0.1l5.8,0.5c0.2,0,0.7-0.4,0.7-0.8L58.9,42C56.9,41.4,54.7,42.1,52.6,42.6"/>
	<path id="_Trazado_compuesto_16" class="st0" d="M3.3,43.5V43l2.6,0.1C5,43.3,4.3,43.7,3.3,43.5z M2.4,43.2c1.5,1.7,4.3,0.3,6.4,0
		c-1.7-0.5-3.7-0.3-5.4-0.8L2.4,43.2"/>
	<path id="_Trazado_57" class="st0" d="M11.6,46.6c0.2,1.2,1.8-0.3,2.8,0.2c0-0.6,0.1-1.3-0.2-1.7c-0.5,0-1,0.6-1.6,0.2l1.3-1.7
		l-2.6-0.1v0.6c0.5,0,1.3-0.6,1.7,0c-0.5,0.9-1.9,1.1-1.6,2.1c0.8-0.2,1.8-0.7,2.6,0C13.4,46.7,12.2,46.7,11.6,46.6z"/>
	<path id="_Trazado_58" class="st0" d="M34.6,46.3c0-0.6,0-1-0.7-1C33.7,45.8,34.3,46,34.6,46.3z"/>
	<path id="_Trazado_compuesto_17" class="st0" d="M50.7,47l-0.1-0.5h0.3C50.9,46.6,50.9,46.9,50.7,47z M48.4,45.3v0.9
		c0.4-0.3,1-0.2,1.4,0.1c-0.3,0.8,1,0.9,1.1,1.6c0.6-0.6,0.8-1.5,0.5-2.3C50.4,45.9,49.3,45.6,48.4,45.3"/>
	<path id="_Trazado_59" class="st0" d="M36.3,46c0,0.4-0.4,1.2,0.2,1.6c0.5-0.3,1.5,0,1.6-0.8h-1.3c0-0.4,0.2-0.7,0.3-1
		C36.8,45.9,36.5,45.7,36.3,46z"/>
	<path id="_Trazado_60" class="st0" d="M39.1,46.8c0.2-0.2,0.5-0.4,0.3-0.7c-0.5-0.2-0.6,0.5-0.5,0.7H39.1z"/>
	<path id="_Trazado_61" class="st0" d="M11,37.6l0.7-3.5C11.3,35.2,11.1,36.4,11,37.6z"/>
	<path id="_Trazado_compuesto_18" class="st0" d="M76.9,54.5h3.9l2.2-8.3h9.6l2.1,8.2h3.9l-8.1-30h-5L76.9,54.5z M87.9,28.7
		L87.9,28.7l3.9,14.5h-8.1L87.9,28.7"/>
	<path id="_Trazado_62" class="st0" d="M96.6,32h3.9l4.4,18.1h0.1l4-18.1h3.9l-6.5,24c-0.9,3.1-1.7,5.9-6,5.9c-0.9,0-1.7,0-2.6-0.1
		V59c0.7,0.1,1.4,0.1,2.1,0.1c1.7,0,2.4-0.9,2.8-2.2l0.7-2L96.6,32z"/>
	<path id="_Trazado_63" class="st0" d="M128.3,54.5h-3.4v-2.6h-0.1c-0.9,2.1-3.3,3.3-5.5,3.3c-6,0-6-4.5-6-7.1V32h3.5v15.5
		c0,1.7,0.1,4.5,3.3,4.5c2.4,0,4.4-1.8,4.4-4.3c0-0.1,0-0.2,0-0.3V32h3.5L128.3,54.5z"/>
	<path id="_Trazado_64" class="st0" d="M130.8,32h3.4v2.6h0.1c0.9-2.1,3.3-3.3,5.5-3.3c5.9,0,5.9,4.5,5.9,7.1v16h-3.5V38.9
		c0-1.7-0.1-4.5-3.3-4.5c-2.4,0-4.4,1.8-4.5,4.3c0,0.1,0,0.2,0,0.3v15.6h-3.5L130.8,32z"/>
	<path id="_Trazado_65" class="st0" d="M149.2,25.4h3.5v6.6h3.9v2.8h-3.9v14.5c0,1.8,0.5,2.5,2.3,2.5c0.5,0,1,0,1.6-0.1v2.9
		c-0.9,0.2-1.9,0.2-2.9,0.2c-3.6,0-4.5-1.5-4.5-4.4V34.7H146V32h3.3L149.2,25.4z"/>
	<path id="_Trazado_compuesto_19" class="st0" d="M159.9,38.8v-0.2c0-0.8,0-4.4,3.9-4.4c2.4,0,3.6,1.2,3.6,3.3c0,1.9,0,2.6-2.6,3.4
		l-4.8,1.4c-2.9,0.9-4.3,3.1-4.3,6.2c0,4.1,1.9,6.6,6.1,6.6c2.3,0,4.3-1.3,5.4-3.3h0.1c0.2,2.9,1.8,2.9,3.2,2.9
		c0.7,0,1.4-0.1,2.1-0.2v-2.5c-0.2,0.1-0.6,0.2-0.9,0.2c-1.1,0-1.1-0.9-1.1-1.8V37.8c0-2.4,0-6.5-6.8-6.5c-5.4,0-7.6,2.3-7.6,7.4
		H159.9z M167.3,48c0,2.3-2.2,4.3-4.5,4.3c-2.4,0-3.2-1.6-3.2-3.9c0-2,0.6-2.9,1.7-3.6c1.6-1,4.7-1.3,6-2.6L167.3,48"/>
	<path id="_Trazado_66" class="st0" d="M173.9,32h3.4v2.6h0.1c0.9-2.1,3.3-3.3,5.5-3.3c2.6,0,4.2,1,4.9,3.6c1-2,3-3.6,5.3-3.6
		c5.9,0,5.9,4.5,5.9,7.1v16h-3.5V38.9c0-1.7-0.1-4.5-3-4.5c-1.7,0-4.2,1-4.2,4.5v15.6h-3.5V38.9c0-1.7-0.1-4.5-3-4.5
		c-1.7,0-4.2,1-4.2,4.5v15.6h-3.5L173.9,32z"/>
	<path id="_Trazado_compuesto_20" class="st0" d="M202,24.5h3.5v4H202V24.5z M202,32h3.5v22.5H202V32"/>
	<path id="_Trazado_compuesto_21" class="st0" d="M223.1,43.7v-1.4c0-4.8-0.6-10.9-7.6-10.9s-8,6.5-8,12.1c0,7.7,2.3,11.6,7.8,11.6
		c6.1,0,7.6-5.6,7.6-8h-3.5c0,1.7-0.5,5.2-3.8,5.2c-4.3,0-4.3-5.2-4.3-8.7L223.1,43.7z M211.4,40.9V40c0-1.3,0.4-5.9,4.1-5.9
		c3.1,0,3.9,3,3.9,5.5v1.2H211.4"/>
	<path id="_Trazado_67" class="st0" d="M224.9,32h3.4v2.6h0.1c0.9-2.1,3.3-3.3,5.5-3.3c5.9,0,5.9,4.5,5.9,7.1v16h-3.5V38.9
		c0-1.7-0.1-4.5-3.3-4.5c-2.4,0-4.4,1.8-4.4,4.3c0,0.1,0,0.2,0,0.3v15.6h-3.6V32z"/>
	<path id="_Trazado_68" class="st0" d="M243.3,25.4h3.5v6.6h3.9v2.8h-3.9v14.5c0,1.8,0.5,2.5,2.3,2.5c0.5,0,1,0,1.6-0.1v2.9
		c-0.9,0.2-1.9,0.2-2.9,0.2c-3.7,0-4.5-1.5-4.5-4.4V34.7H240V32h3.3L243.3,25.4L243.3,25.4z"/>
	<path id="_Trazado_compuesto_22" class="st0" d="M249.9,43.2c0,6.3,1.6,11.9,8.1,11.9c6.5,0,8.1-5.5,8.1-11.9s-1.6-11.9-8.1-11.9
		C251.5,31.4,249.9,36.9,249.9,43.2z M258,52.3c-3.6,0-4.3-4.2-4.3-9.1s0.8-9.1,4.3-9.1c3.8,0,4.5,4.2,4.5,9.1S261.7,52.3,258,52.3"
		/>
	<path id="_Trazado_compuesto_23" class="st0" d="M290.5,24.5h-3.5v10.1h-0.1c-0.8-1.9-2.9-3.2-5-3.2c-6.4,0-7.1,7.1-7.1,11.9
		c0,7.1,2,11.9,7.4,11.9c2.5,0,4.4-1.7,4.9-3.4h0.1v2.8h3.4L290.5,24.5z M278.5,43.2c0-5.4,0.9-8.8,4.1-8.8c3.8,0,4.5,4.4,4.5,8.8
		c0,5.1-0.6,8.8-4.5,8.8C279.3,52.1,278.5,48.6,278.5,43.2"/>
	<path id="_Trazado_compuesto_24" class="st0" d="M307.8,43.7v-1.4c0-4.8-0.6-10.9-7.5-10.9c-6.9,0-8,6.5-8,12.1
		c0,7.7,2.3,11.6,7.8,11.6c6.1,0,7.6-5.6,7.6-8h-3.5c0,1.7-0.5,5.2-3.8,5.2c-4.3,0-4.3-5.2-4.3-8.7L307.8,43.7z M296,40.9V40
		c0-1.3,0.4-5.9,4.1-5.9c3.1,0,3.9,3,3.9,5.5v1.2H296"/>
	<path id="_Trazado_69" class="st0" d="M330.2,34.6c0-4.4-0.9-6.3-3.6-6.3c-3.1,0-3.8,3.1-3.8,11.6c0,9.1,1.3,10.7,3.9,10.7
		c2.2,0,3.8-1.1,3.8-7.6h6c0,6.5-1.6,12.1-9.5,12.1c-9.1,0-10.2-6.5-10.2-15.6S317.9,24,326.9,24c8.6,0,9.3,6.4,9.3,10.7L330.2,34.6
		z"/>
	<path id="_Trazado_compuesto_25" class="st0" d="M342.9,38.8v-0.6c0-1.7,0.9-2.9,2.7-2.9c1.9,0,2.7,1,2.7,2.8
		c0,1.5-0.6,2.2-2.3,2.6l-3.3,0.9c-4,1.1-5.7,2.8-5.7,7.1c0,3,1.4,6.5,5.5,6.5c2.8,0,4.4-0.6,5.8-2.9h0.1c0.1,0.8,0.4,1.6,0.7,2.4
		h5.6c-0.6-1.3-0.7-2.3-0.7-4.4v-12c0-4.1-1.3-6.9-8.2-6.9c-4.4,0-7.9,1.7-7.9,7v0.6C337.7,38.8,342.9,38.8,342.9,38.8z M343.1,29.2
		h4l4.1-6h-5.8L343.1,29.2 M348.2,47.7c0,2.5-2,3.5-3.6,3.5s-2.2-1.4-2.2-3.2c0-2,0.9-3.2,3.3-3.7c0.9-0.2,1.7-0.6,2.5-1.1
		L348.2,47.7"/>
	<path id="_Trazado_compuesto_26" class="st0" d="M367.4,54.5h5.6v-30h-5.8V34H367c-1.2-1.8-2.7-2.7-4.9-2.7
		c-4.8,0-6.9,3.5-6.9,11.9s2.2,11.9,6.9,11.9c2.3,0,3.9-0.9,5.1-3h0.1L367.4,54.5z M361,43.2c0-4.9,0.5-7.5,3-7.5s3.1,2.5,3.1,7.5
		s-0.5,7.5-3.1,7.5S361,48.1,361,43.2"/>
	<path id="_Trazado_compuesto_27" class="st0" d="M374.9,24.1h5.8v5h-5.8V24.1z M374.9,31.9h5.8v22.6h-5.8V31.9"/>
	<polygon id="_Trazado_70" class="st0" points="381.8,50 390.8,36.6 382.2,36.6 382.2,31.9 397.7,31.9 397.7,36.3 388.6,49.8 
		397.7,49.8 397.7,54.5 381.8,54.5 	"/>
</g>
</svg>
