<?xml version="1.0" encoding="UTF-8"?>
<!-- Generator: Adobe Illustrator 22.1.0, SVG Export Plug-In . SVG Version: 6.00 Build 0)  -->
<svg version="1.1" id="Capa_1" xmlns="http://www.w3.org/2000/svg" xmlns:xlink="http://www.w3.org/1999/xlink" x="0px" y="0px" viewBox="0 0 841.9 164.2" style="enable-background:new 0 0 841.9 164.2;" xml:space="preserve">
<style type="text/css">
	.st0{fill:#15B4AC;}
</style>
<title>logo-ayto</title>
<g id="Capa_2_1_">
	<g id="Capa_1-2">
		<g id="_Grupo_">
			<path id="_Trazado_" class="st0" d="M81.5,10.2c0.6-0.1,0.3-0.8,0.3-1.2h-1.2C80.4,9.6,80.5,10.6,81.5,10.2z"/>
			<path id="_Trazado_2" class="st0" d="M51.4,11.3c0.4-0.4,1-0.8,0.7-1.4c-0.4-1.1-2.8-0.8-1.9,0.7C50.6,10.9,50.8,11.4,51.4,11.3z     "/>
			<path id="_Trazado_3" class="st0" d="M72.5,19.5c-0.7,0.1-1.2,0.7-1.1,1.4c0,0.1,0,0.2,0.1,0.2c0,1,1.1,1,1.9,1s1.1-1.2,1-2.1     C74,19.2,73.2,19.5,72.5,19.5z"/>
			<path id="_Trazado_4" class="st0" d="M57.7,21.2c0.3,0.5,1,1.6,1.9,1.2c0.8,0,1.4-0.6,1.5-1.4c0-0.2,0-0.4-0.1-0.5     C60.2,19.4,58,19.5,57.7,21.2z"/>
			<path id="_Trazado_compuesto_" class="st0" d="M98.6,118.8l0.1-2.1c1.4,0.4,3.8,0.7,3.9,2.8C101.2,120.3,99.7,119.7,98.6,118.8z      M103.1,116.6c0,0-2.7-1.1-4.7-2c-2.4,1.1-1.4,3.7-1.4,5.3c1.4,1.5,3.2,1.8,5.2,1.7l0.8-0.4c1.2-0.5,1.3-2.9,0.9-3.5L103.1,116.6     "/>
			<path id="_Trazado_compuesto_2" class="st0" d="M97.9,125.9h-1.4c0.3-0.6,0.6-1.5,1.4-0.7V125.9z M95.3,121.2     c0.8,1.4,0.6,3.1-0.4,4.3c-1.1-0.6-2.3,1.1-2.9,2.1c0.7,2.5,1.9-0.8,3.6,0.3c1.9-0.2,5.2,0.7,5.2-2.3l-1.2-0.9     C96.8,123.2,98.2,118.5,95.3,121.2"/>
			<path id="_Trazado_5" class="st0" d="M95.9,130.3l-1,2.1c-2.5-0.1-3.4-5.5-5.6-2.1l4.9,4c-0.6,0.6-1.9,0.1-2.1,1.4     c0.4,0.8,1.2,0.7,2.1,0.7c0.6-1.1,1.4-2.2,2.3-3l0.3-0.7c0.6-0.3,0.3-0.8,0.3-1.3C96.7,131,96.4,130.3,95.9,130.3z"/>
			<path id="_Trazado_compuesto_3" class="st0" d="M35.6,59.1v0.3c-1.4,0.7-3.1,0.2-4-1C31.5,55.1,36.4,57.3,35.6,59.1z M35.3,61.3     c2.2-0.4,1.1-3,3.3-3.6l0.7-0.3l-1.1-1.7c-1.8,4-3-2.3-5.9-0.4c-1.2,0.8-1.2,2.2-1.9,3.3C30.8,60.9,33.3,61.5,35.3,61.3"/>
			<path id="_Trazado_compuesto_4" class="st0" d="M30,118.6c-0.7-2.6,2.5-3.6,4.4-2.6C34,117.9,31.5,117.7,30,118.6z M35.5,116.9     l-0.1-0.3l-1.3-1.4c-1.8-0.7-4,0.4-5,1.9c0.3,1.7-0.3,3.8,1.4,4.7l2.6-2.1c0.9-0.8,3.1,0.7,3-1.5v-0.1L35.5,116.9"/>
			<path id="_Trazado_compuesto_5" class="st0" d="M99.2,53c0.4,1-0.4,1.5-1,2.1c-0.6,0.1-1.3-0.2-1.7-0.7     C96.8,53,98.5,52.9,99.2,53z M89.3,46.4c-0.5,3.3,3.3,6.2,4.9,8.9l0.4-0.3l0.3,2.9c1-1.4,2.1-1.8,4.3-1.7     c1.1-0.7,1.7-2.1,1.4-3.3c-1.7-7-5.5,4-8.2-1.7c-1-0.6,0.2-1.4,0.7-1.9c0.4,0.5,1,0.8,1.6,0.7c0-0.8-0.3-2.8,1.2-3     c1.1,0.8,0.7,2.5,1.7,3c0.1-0.7,1.2-1.4,0.4-2.1c-1.8-6.2-4.9,1.9-7.6,0.7l4.3-4.5c-1.4-1.1-2.2,1.2-3.3,1.9     c-4.7-0.1,0.4-3.3,0.7-5c-2.2,0.1-4.1,3.6-6,4.7C87.1,47.9,88.4,44.5,89.3,46.4"/>
			<path id="_Trazado_6" class="st0" d="M43.2,49.2c1.2-1.5,3.8-2.9,2.3-4.7l-1.2,2.3c-0.7,1.1-1.7,1.1-2.3,0     c0.1-0.1,0.3-0.4,0.7-0.4v-1.9H42c-0.1,0.5-0.3,1-0.7,1.4c-0.6,0.1-1.2-0.2-1.6-0.7c-0.7-1.9,1.8-2.2,2.3-3c-2.2-1-3.3,2.2-4,3.7     C40.2,45.9,41,49,43.2,49.2z"/>
			<path id="_Trazado_7" class="st0" d="M39.9,54.1c1-1.5,1.2-3.2-0.3-4.4c-0.7-0.7-2.3-0.8-2.3-2.2c-0.8-0.1-1.5,0.5-1.6,1.2l3.3,2     c0.3,0.8,1.7,1.7,0.7,2.6c-2.3,1.3-4.1-1.4-5.6-2.3l-0.7,1C35.1,53.3,37.7,55.3,39.9,54.1z"/>
			<path id="_Trazado_8" class="st0" d="M98.9,57c-1.8,0.7-3,1.8-2.6,4c0.1,0.7,0.7,1.1,1.3,1.1c0.1,0,0.2,0,0.3-0.1L97,60     c0.8-1.8,3-1.8,4.2-1.7c2.9,4.4-3,2.9-3.7,5.9c0.7,5.1,5.1,0.1,7.7,1.7c-1.9,1.4-4.2,1.5-6.3,2.3c1.8,0.7,0,3.3,2.3,3.6     c0.7-0.8-0.8-1.7-0.7-2.6c1.5-1.1,3.3-1.8,5.2-1.9c-0.7-1.4-0.4-1.9-1-3.3c-1.7,0.6-3.3,1.5-5.2,1.7c-0.4-0.4-1-0.8-1-1.4     c1.3-1.4,3.1-2.2,4.9-2.3l-0.7-2.9C102.2,57.5,100.5,56.6,98.9,57z"/>
			<path id="_Trazado_compuesto_6" class="st0" d="M30,65c0.5-0.1,0.7,0.4,1.1,0.7v1c-1.1,0.7-2.2,0-3-0.7C28.3,65.2,29.2,64,30,65z      M33.3,69c0.4-1.2-0.5-1.4-1.2-1.7c1.1-0.8,3-2.2,2.4-3.7c-2.1,3.1-3.2-1.7-5.6-0.3c-0.8,1.7-2.6,3.2-2.1,4.9     C29,67.5,31.6,69.7,33.3,69"/>
			<path id="_Trazado_9" class="st0" d="M63.9,67.2c-0.4,0.2-0.7,0.4-1,0.8C63.2,68.3,63.7,68.3,63.9,67.2z"/>
			<path id="_Trazado_10" class="st0" d="M64.9,66.9c0,0.6,0,1,0.3,1.2c0,0,0.8,0.4,1.4-0.6C66.1,67,65.5,66.8,64.9,66.9z"/>
			<path id="_Trazado_compuesto_7" class="st0" d="M28.1,71.1c1,0.4,1.9,0.4,2.6,1.4c0.2,0.6-0.1,1.4-0.7,1.6     c-0.1,0-0.2,0.1-0.3,0.1c-1-0.6-2.6-0.1-3-1.4C26.3,71.7,27.4,71.6,28.1,71.1z M29.4,75.5c1.4-0.4,2.9-1.9,2.2-3.7     c-1-1.2-2.5-2.5-4.5-1.9c-0.7,0.7-2,1.9-1.6,2.9C25.5,74.8,27.5,75.7,29.4,75.5"/>
			<path id="_Trazado_11" class="st0" d="M100.5,74.2c0.1,1.5,0.8,3.2,2.6,3l-1.7-2.7l1-0.6c0.3,0.3,0.8,0.4,0.7,0.9     c3.6,1.9-0.3-3.6,3.3-1.6l0.4,2.9l1-1c-0.4-1.1-0.1-2.5-0.7-3.6c-2.2,0.6-4.2,1.5-6.6,1.6L100.5,74.2z"/>
			<path id="_Trazado_12" class="st0" d="M31.6,106.1c0.6-2.9-1.6,0.1-2.6-0.9c1.2-1.2-0.8-2.6-0.7-3l2.3-0.7c0-2.1-4.4-0.1-5.9,0     l3.3,2.6c-0.7,1.4-2.8,1.2-2.3,3c0.4-0.1,0.6,0.1,0.7,0.3C27.8,106,29.7,106,31.6,106.1z"/>
			<path id="_Trazado_13" class="st0" d="M79.8,100.2c-1.2,1,0.7,1.9,0.7,2.6l1.2-1.4C81,101.1,80.8,100,79.8,100.2z"/>
			<path id="_Trazado_14" class="st0" d="M50.4,104.1c0.8-0.4,0.8-1.4,1.4-1.7c-1.2-0.8-2.8,0.1-3.3,1.1     C49.2,103.8,49.6,104.2,50.4,104.1z"/>
			<path id="_Trazado_15" class="st0" d="M101.5,105.4c1.4,2.1,3.7,1.4,5.6,1.9v-1.2c-1.9,0-4.1,0.1-4.9-1.6c1-3.2,4.1-0.6,5.9-1.4     v-0.7l-4.9-0.3C101.5,102.2,101.5,104.1,101.5,105.4z"/>
			<path id="_Trazado_16" class="st0" d="M100.5,107.4v1.6c1,0.3,2.2-0.5,2.6,0.7l-3.3,2.6l5.3,2.3c0-0.5,1.2-1.1,0.3-1.7     c-1-0.3-2.3,0.6-3-0.7l4-2.6L100.5,107.4z"/>
			<path id="_Trazado_compuesto_8" class="st0" d="M27.8,111.3c-0.4-1.7,1.5-2.1,2.6-2.3c0.7,0.3,2.5,0.7,1.2,1.7     C30.5,111.2,29,112.3,27.8,111.3z M31.1,113c1.2-0.7,2.5-1.9,1.9-3.6c-1-2.5-2.9-0.9-4.9-1.4c-0.7,0.8-1.8,1.4-1.4,2.6     C26.7,113,29.2,113.9,31.1,113"/>
			<path id="_Trazado_17" class="st0" d="M45.2,133.2c-1.7-0.7-1.2,1.5-2.6,1.6l-0.4-2.7c-0.8,0-1.9,0.3-2.6-0.3     c0.7-1.1,2.2-1.2,2.3-2.3c-1.8-0.8-3.8,2.1-5.3,3.3h3.7c1.7,1.4-0.5,3.1,0.3,4.7C42.2,136.1,45.1,134.8,45.2,133.2z"/>
			<path id="_Trazado_compuesto_9" class="st0" d="M89.3,139.1c-1.8,0.1-2.2-1.8-2.9-3c1.2-1.6,3,0.1,3.6,1.4     C90,138,90.4,139.1,89.3,139.1z M86.7,134.1c-1.4,0.4-1.4,2.2-1.2,3.6c0.8,1.4,2.2,2.7,3.8,2.6s2.3-1.9,2.1-3.6     C90.2,135.4,88.9,133.3,86.7,134.1"/>
			<path id="_Trazado_18" class="st0" d="M41.9,139.1c2.3,1.5,2.6-3.3,5.6-3c1.8,2.2-2.1,4-2.7,5.6c1.9,0.3,3.2-2.9,4-4.7     C47,132.4,43.2,137.4,41.9,139.1z"/>
			<path id="_Trazado_compuesto_10" class="st0" d="M84.1,142.6h-1.4l-0.3-1.9c0.6-0.2,1.4,0.1,1.6,0.7c0,0.1,0.1,0.2,0.1,0.3     L84.1,142.6z M82.7,137c-1.5,0.3-0.4,1.6-1,2.3l-2.6-0.3c-0.7,0.1-1.1,0.6-1.1,1.3c0,0.1,0,0.2,0.1,0.3c0.7,0.3,1.1-0.4,1.7-0.7     c2.5,0.2,0.4,3,1.9,4c1.8,1,3.6-0.8,4.7-2.1C84.5,140.6,84.4,137.7,82.7,137"/>
			<path id="_Trazado_19" class="st0" d="M51.1,137.7c-1.8,1.4-1.9,4.1-3.3,5.9h1.6c-0.1-2.2,1.4-3.6,2.6-5.2L51.1,137.7z"/>
			<path id="_Trazado_compuesto_11" class="st0" d="M61,145l-0.7-1c0.4,0,0.8-0.1,1,0.3S61.1,144.8,61,145z M53.5,144.7     c-0.7-1.4-0.4-4,1.6-3.7C55.1,142.1,55.4,144.8,53.5,144.7 M60,142.4c-1-1.9-3.7-2.5-5.9-2.6c-1.7,0.1-2.5,1.9-3,3.3     c0.6,2.1,2.5,3.4,4.7,3.3c0.4-1.6,0.1-3.9,1.9-4.7l2.3,5.2c1.5-0.1,2.5,1.9,4,0.7l-2.7-1.6l2.7-4C62.6,142.1,61.3,143.2,60,142.4     "/>
			<path id="_Trazado_20" class="st0" d="M65.7,142v3.3c2.9,0.8-0.3-3.4,2.6-2.6c0.8,0.6,1.2,1.6,1,2.6c-0.3,1.7-1.8,2.1-3.3,1.6     v0.7c0.4,0.4,0.7,1,1.4,0.7c1.4-0.2,3.8-1.8,2.9-4C70.8,141.4,67.5,142.2,65.7,142z"/>
			<path id="_Trazado_21" class="st0" d="M25.3,120c-0.6-2.5-1.5-4.8-2.9-6.9C23.5,115.4,23.8,118,25.3,120z"/>
			<path id="_Trazado_22" class="st0" d="M21.9,117.8l-0.7-1.6C21.4,116.8,21.7,117.3,21.9,117.8z"/>
			<path id="_Trazado_23" class="st0" d="M21.4,120.7l-1.6-3.4C20.2,118.5,20.7,119.6,21.4,120.7z"/>
			<path id="_Trazado_24" class="st0" d="M25.6,126.9c0.1,0.2,0.2,0.4,0.3,0.6l0,0L25.6,126.9z"/>
			<path id="_Trazado_25" class="st0" d="M32.5,134.8c-0.3-2.8-2.2-5.1-4.5-6.9C28.6,130.6,29.9,133.4,32.5,134.8z"/>
			<path id="_Trazado_26" class="st0" d="M25.6,132.2c-0.3-1.3-0.9-2.6-1.7-3.6C24.2,129.9,24.8,131.1,25.6,132.2z"/>
			<path id="_Trazado_27" class="st0" d="M24.1,133.7c0.5,2.2,1.4,4.3,2.7,6.3C26.7,137.6,25.3,135.7,24.1,133.7z"/>
			<path id="_Trazado_28" class="st0" d="M32.3,137.3c0,1.7,1.8,2.1,3.1,2.9C34.7,139,33.6,138,32.3,137.3z"/>
			<path id="_Trazado_29" class="st0" d="M41.5,143l-5-4.7C37.6,140.3,39.3,142,41.5,143z"/>
			<path id="_Trazado_30" class="st0" d="M34.1,143.9c0.3,0.2,0.6,0.5,0.8,0.7C34.6,144.4,34.3,144.1,34.1,143.9z"/>
			<path id="_Trazado_31" class="st0" d="M41.6,148.8c-1-1.8-2.4-3.4-4.1-4.6C39,146,40.2,148,41.6,148.8z"/>
			<path id="_Trazado_32" class="st0" d="M48.5,148.3c2.9,1.1,5.9,4.8,9.2,2.8c-3.5-1.7-7-3-10.7-4.5L48.5,148.3z"/>
			<path id="_Trazado_33" class="st0" d="M38.6,151.6l0.6-0.6c-1.2-0.7-2.5-1.3-3.9-1.6C36.3,150.3,37.4,151,38.6,151.6z"/>
			<path id="_Trazado_34" class="st0" d="M53.9,153.5c-2.6-1.5-5.4-2.3-8-3.7C48.2,151.6,51.3,152.6,53.9,153.5z"/>
			<path id="_Trazado_35" class="st0" d="M45.2,152c1.5,1.3,3.3,2.1,5.2,2.5L45.2,152z"/>
			<path id="_Trazado_36" class="st0" d="M60.5,155.5l0.3,0.3c0.5-0.1,1-0.2,1.5-0.3H60.5z"/>
			<path id="_Trazado_37" class="st0" d="M54.7,158.1c1.1,0.3,2.2,0.6,3.2,1C56.9,158.6,55.8,158.2,54.7,158.1z"/>
			<path id="_Trazado_38" class="st0" d="M108.2,121.4c1.6-2,3.5-4.1,3.8-6C110.3,117.3,108.3,119.4,108.2,121.4z"/>
			<path id="_Trazado_39" class="st0" d="M107.8,130.6c1-2.1,1.8-4.2,2.3-6.5C108.9,126.1,108.1,128.3,107.8,130.6z"/>
			<path id="_Trazado_40" class="st0" d="M103.8,130c0.2-0.2,0.5-0.3,0.7-0.5c0.7-1.5-0.9-0.8-1.4-1.1l-1.2,2.1     C102.6,130.4,103.2,130.2,103.8,130z"/>
			<path id="_Trazado_41" class="st0" d="M96.4,138.2c1.8-1.2,3.3-2.8,4.4-4.8C98.8,134.5,97.2,136.2,96.4,138.2z"/>
			<path id="_Trazado_42" class="st0" d="M106.3,138.1c0.4-0.6,0.7-1.3,0.8-2C106.6,136.6,106.3,137.3,106.3,138.1z"/>
			<path id="_Trazado_43" class="st0" d="M93.8,148l6.8-8.1C97.5,141.9,95.2,144.7,93.8,148z"/>
			<path id="_Trazado_44" class="st0" d="M90.4,143.3c0.3-0.1,0.6-0.4,0.7-0.7l-0.9,0.7H90.4z"/>
			<path id="_Trazado_45" class="st0" d="M101.7,145c-1.9,1.9-4.3,3.4-4.9,5.5C98.7,149,100.4,147.1,101.7,145z"/>
			<path id="_Trazado_46" class="st0" d="M79.2,150.6c3.9-0.4,7.3-2.8,10.3-5C85.4,145.7,82.1,148.1,79.2,150.6z"/>
			<path id="_Trazado_47" class="st0" d="M82.3,152.9l6.2-3.8C86.3,150,84.1,151.3,82.3,152.9z"/>
			<path id="_Trazado_48" class="st0" d="M76.6,149.8c-1,0.1-2,0.3-2.9,0.6l0.2,0.2C74.9,151.5,75.7,150.5,76.6,149.8z"/>
			<path id="_Trazado_49" class="st0" d="M84.9,153.8c1.4-0.3,2.7-1,3.8-2L84.9,153.8z"/>
			<path id="_Trazado_50" class="st0" d="M92.1,152.2c-1,0.3-1.7,1-2,2C90.9,153.7,91.6,153,92.1,152.2z"/>
			<path id="_Trazado_51" class="st0" d="M83.7,157.2c0,0.1,0,0.1,0.1,0.2c1.1-0.4,2.1-0.9,3-1.7C85.8,156.2,84.3,156.6,83.7,157.2z     "/>
			<path id="_Trazado_52" class="st0" d="M78.1,157.5h-0.6c-2,1-3.9,3.2-5.9,3.2c0-0.1,0-0.1,0-0.2l0,0c-0.2-0.4,0.1-0.8,0.5-1.2     c-1.5,0.2-2.8,1-3.8,2.2l0.6,0.6C72.7,162.4,75.5,160.1,78.1,157.5z"/>
			<polygon id="_Trazado_53" class="st0" points="12.3,101.2 13.5,99.8 11.9,101.2    "/>
			<path id="_Trazado_compuesto_12" class="st0" d="M127.2,98.9l-0.3,2.3c-3.6-3.3-9.2-7.1-15.1-4.7v0.4c3.3,0.8,7.1,0.7,10.2,2.6     v6.2c-2.7-2.1-6.6-1.7-9.6-0.3c-4.4,2.6-5.1,7.2-6.7,11.4l-3.5,8.5c-1.4,2.6-2.1,4.3-4.3,6.9l-0.9,1.3     c-8.7,11.1-20.6,16.7-35,15.5c-13.2-1.5-26.2-10.8-31.6-23.5c-4.7-9.3-7.4-19.4-7.9-29.8C17,96.4,10.3,99,6.4,103.1     C4,99,10.6,94.5,3.6,92.6c-1.6-1-0.5-2.8,0-3.8c5.4-1.9,1.4-6.9,3-9.9c3.6,4,10.5,5.1,15.8,4.8v2.1c0.1-2.2,0.4-4.4,0.7-6.6     l-0.7,3.7C15.5,84,9.3,78.4,9.3,78.4l1.7-4.2c3,4.8,11.4,0.1,13.6-3.2l-0.1,0.6c1.9-8,5-15.5,9.4-22.4     C38.2,38.9,49.8,34.9,56,26.7c7.1-0.8,14.6-1.2,21.4,0.4c2.7,6.4,10.4,8.2,15.5,12.8c6.9,9.3,12.1,19.7,15.5,30.7     c2.3,2.1,4.7,4.4,8.2,3.8c1.5-0.1,3-0.5,4.3-1.2c-0.3,2.5-0.4,6.6-4,7.3l-4.7,1c2.1,1.4,4.7,0,7,0c1.9-1.4,4.4-3,5.6-4.9     c1.7,1.4,0.8,3.6,0.6,5.6c-2.8,2.8-7.1,2.3-10.2,4.3c4,1.4,10.3-5.6,12.9,0.7C129.9,91.9,123.5,94.5,127.2,98.9z M119.6,113.4     c-1.1,1.2-2.9,0.3-4.3,0c-0.7-1.2-1.4-2.9-0.7-4.4c1-0.8,2.9-2.1,4-0.5c0.1,0.8,1.2,1.6,0.3,2.6H117c0.1-0.6-0.4-0.7-0.7-1h-0.7     c-1,1.1,0.3,2.5,1.4,2.9c1.7,0.5,3.4-0.4,3.9-2.1c0-0.1,0-0.1,0.1-0.2c0-1.8-1-3.4-2.6-4.2c-4.1-1.1-7,3.3-8.9,4.9     c0.8-2.5,3.3-4.1,5.6-5.2c2.2-0.2,4.8-0.3,5.9,1.9C121.7,109.9,121.2,112.1,119.6,113.4 M114,122.5c-0.3-2-1.2-4.7,0.7-6.3     C114.9,118,114.3,120.4,114,122.5 M108.1,122.1c0-0.2,0-0.4,0-0.7c-0.4,0.5-0.7,0.9-1,1.4c-0.3-2.8,3-5.3,4.9-7.8     c0,0.1,0,0.2-0.1,0.3c0.5-0.5,0.9-1,1.3-1.5C113.1,116.5,109.8,119.4,108.1,122.1 M113.3,126.2l-2.1,4.3l2.1-6.6V126.2      M107.6,133c0-0.8,0-1.6,0.1-2.4c-0.3,0.6-0.6,1.2-0.9,1.8c-0.1-4.1,1.5-7.4,3.7-10.6c-0.1,0.8-0.3,1.6-0.4,2.3     c0.4-0.8,0.9-1.5,1.4-2.3C111,125.8,109.6,129.6,107.6,133 M106.1,139.8c0.1-0.6,0.2-1.2,0.2-1.8c-0.3,0.6-0.8,1.1-1.1,1.7     c0.4-1.5-0.1-3.9,1.9-4c0,0.1,0,0.2,0,0.2c0.3-0.2,0.6-0.4,1-0.4C108.1,137.2,107,138.5,106.1,139.8 M96.7,151     c0-0.2,0.1-0.4,0.1-0.5c-0.3,0.2-0.6,0.5-0.9,0.8c0.3-3.1,5.2-4.9,6.6-8.2c-0.2,0.7-0.4,1.3-0.8,1.9c0.8-0.7,1.4-1.6,1.9-2.6     C102.6,146,99.7,148.4,96.7,151 M101.2,141.7l-3.7,4.9l-2.2,1.9L101.2,141.7 M101.2,130.8l1.7-3c0,0.2,0,0.4,0.2,0.5l0.6-1     c-0.1,1.4,2.6-0.3,1.7,1.7c-0.5,0.4-1,0.8-1.6,1C103,130.5,102.1,130.8,101.2,130.8 M97.5,139.4l3.7-3.6     C100.4,137.5,99,138.3,97.5,139.4 M101.9,135.7c-0.9,1.7-2.3,2.6-3.9,3.7L101.9,135.7 M101.5,133.2c-1,2.2-3.2,4-5.2,5.5     c0-0.1,0.1-0.3,0.1-0.4c-0.2,0.2-0.4,0.3-0.6,0.4c0.4-2.2,2.9-4.5,4.9-5.2l0,0C101,133.4,101.3,133.3,101.5,133.2 M93,149     c0.8-3.4,4.4-8,8.2-9.9l-0.7,0.9c0.5-0.3,0.9-0.6,1.4-0.8l-8.6,10.4c0.1-0.5,0.3-1,0.5-1.4L93,149 M93.3,145.1v0.3l-1,1     L93.3,145.1 M93,145l-1,0.9l1-1.2V145 M89.8,155.4c0.1-0.4,0.2-0.8,0.3-1.1c-0.1,0.1-0.3,0.2-0.4,0.3c0.3-1.5,1.1-3.3,2.9-3     c-0.1,0.2-0.3,0.4-0.4,0.7c0.2-0.1,0.5-0.1,0.7,0C92.1,153.5,91.1,154.6,89.8,155.4 M82.5,155l2.4-1.2c-0.7,0.2-1.4,0.3-2.2,0.4     l7-3.6c-0.3,0.4-0.6,0.8-1,1.2l1.1-0.6C88.3,153.7,85.4,154.6,82.5,155 M87.1,155.7c0.3,1.3-2.2,2.2-3.4,2.7     c-0.2-0.4-0.2-0.8,0.1-1.2c-0.4-1.4,2.2-1.7,3.4-2.4c0.1,0.4-0.1,0.7-0.3,0.9H87.1 M80.8,153.9c2.6-2.5,5.6-5.1,9.2-5.6l-1.4,0.9     c0.5-0.2,1-0.3,1.6-0.4l-9.7,5.9c0.6-0.6,1.2-1.2,1.9-1.8L80.8,153.9 M91.2,142.6c0.4,0,0,0.9-0.6,1h-0.7l0.3-0.2h-0.4l1.2-0.9     C91.1,142.4,91.1,142.5,91.2,142.6L91.2,142.6 M78.9,150.7c3-2.6,6.6-5.5,11.1-5.3c-0.2,0.1-0.3,0.2-0.5,0.4h0.6     c-3.3,2.4-7.2,5.3-11.7,5.6l0.8-0.6L78.9,150.7 M68.9,162.5l-0.7-0.8c0.1,0,0.1-0.1,0.2-0.2v-0.1c1.1-1.2,2.3-2.3,4-2.3     c-0.1,0.1-0.1,0.1-0.2,0.2h0.2c-0.4,0.4-0.8,0.8-0.8,1.2c1.9,0,3.7-2,5.6-3h1l0,0h0.4c-2.7,2.7-5.8,5.2-9.7,4.9 M65.1,158.5     c3.2-0.4,5.9-1.8,9.2-1.9C71.3,157.2,68.7,159.3,65.1,158.5 M62.8,157.5c2.6-0.4,5.2-3.3,8.5-1.9C68.4,156.2,66,157.5,62.8,157.5      M73.6,153.5c-4,0.3-8.2-1.6-12.5-1C64.8,151.4,69.5,153.2,73.6,153.5 M74.1,152.3l-7-1.4l0.7-0.3L74.1,152.3 M73.6,150.3     c1.2-0.6,2.6-1,4-1c-0.3,0.1-0.6,0.3-0.9,0.6h0.4c-1.3,0.4-2.3,2.7-3.7,1.4l-0.4-0.4l0.9-0.4L73.6,150.3 M60.8,155.8L60.8,155.8     l-1.2-1.2c1.5,0,3.7-0.3,5.4,0.3c-0.8,0.2-1.7,0.4-2.6,0.6c1.3-0.1,2.6,0,3.8,0.3c-1.4,0.3-3,0.7-4.5,1L60.8,155.8 M49.9,157.2     c1.5,0.4,3.2,0.5,4.8,0.8c-1.8-0.5-3.5-1.1-5.2-1.9c3.2,0.9,7.1,0.4,9.6,3.3c-0.4-0.2-0.8-0.3-1.2-0.5c0.8,0.4,1.5,1,2.1,1.6     C57.3,159.5,53.1,158.7,49.9,157.2 M55.4,154.2c-0.5-0.2-1-0.4-1.5-0.6c0.8,0.4,1.5,1,2.2,1.6c-3.3-1.6-8.9-2.7-11.7-6.2     c0.5,0.3,1,0.6,1.5,0.9c-0.6-0.4-1.2-0.9-1.6-1.5C47.7,150.7,52.1,151.3,55.4,154.2 M58.8,151.6c-3.6,2.6-6.8-1.6-10-2.7     l-2.2-2.4l0.3,0.1l-0.5-0.6c4,1.6,7.8,3,11.5,4.9l-0.3,0.2C58.1,151.3,58.5,151.4,58.8,151.6 M44.4,151.6l0.8,0.4     c-0.4-0.3-0.7-0.7-1-1.1l9.5,4.7c-1-0.4-2.2-0.6-3.3-1l4,1.9C50.9,155.4,46.4,154.8,44.4,151.6 M39.8,144l2.4,1.8l0.7,0.7     L39.8,144 M34.6,142.3c1,0.6,2,1.2,2.9,1.9c-0.7-0.9-1.6-1.7-2.6-2.2c2.8,1.7,5.9,3.8,7,7c-0.1,0-0.2-0.1-0.3-0.2     c0.1,0.3,0.3,0.6,0.4,0.8C39.7,148.8,38,144,34.6,142.3 M40.9,153.1l-1.7-1.4l-0.7,0.7c-2-1-3.8-2.5-5.2-4.3     c-0.4-0.4-0.7-0.8-1-1.2c0.3,0.4,0.7,0.8,1,1.2c0.6,0.6,1.3,1,2.1,1.2c-0.6-0.6-1.2-1.2-1.7-1.8c-0.4-0.3-0.7-0.7-1-1.1     c0.3,0.4,0.6,0.8,1,1.1c2.3,2.2,5.5,1.1,7.3,4.7l-1.7-1.4l-0.1,0.1C40,151.5,40.5,152.3,40.9,153.1 M34.1,144     c-0.7-0.6-1.4-1.3-2-2c1.9,1.1,3.5,2.4,5,4c-0.7-0.3-1.4-0.8-2.1-1.3c0.7,0.6,1.3,1.1,1.8,1.8c-2-1-3.8-2.4-5.2-4.2     C32.6,142.9,33.4,143.4,34.1,144 M36.4,140.8c-0.2-0.2-0.5-0.4-0.8-0.6c0.2,0.2,0.4,0.5,0.5,0.8c-1.4-1.3-4.5-1.4-4.2-3.9     c0.2,0.1,0.3,0.2,0.5,0.3c0-0.1,0-0.2,0-0.3C34.1,137.8,35.5,139.1,36.4,140.8 M43,146l-3-2.3l2.3,1.6L43,146 M36.4,137.7     l5.9,5.6c-0.2-0.1-0.5-0.2-0.7-0.4l0.7,0.7c-2.4-1.1-5.3-3.2-6.2-5.9l0.5,0.5C36.6,138.1,36.5,137.9,36.4,137.7 M27.5,127.4     c0.2,0.2,0.5,0.3,0.7,0.5v-0.1c2.5,1.8,4.7,4.2,4.9,7.3c-0.2-0.1-0.3-0.2-0.5-0.2v0.2C29.5,133.6,28.1,130.4,27.5,127.4      M27.5,129.9l2.3,5.2C28.6,134.6,28.3,131.6,27.5,129.9 M26.8,129.6l2.3,5.4c-1.3-0.6-1.6-3.7-2.5-5.5 M27.4,141     c-0.2-0.3-0.4-0.6-0.6-1c0,0.4,0,0.8-0.1,1.2c-2-2.8-3.3-6-3.7-9.4c0.3,0.6,0.7,1.3,1.1,1.9c-0.1-0.6-0.2-1.1-0.3-1.7     C25.3,134.9,27.9,137.3,27.4,141 M21.9,121.9c-1.7-1.6-2.7-4-3.5-6.2H19l0.7,1.6c-0.1-0.2-0.2-0.4-0.2-0.6H20l2.7,5.9     c-0.6-0.6-1.1-1.2-1.5-1.9L21.9,121.9 M17.9,118.9l1,3.7C18,121.6,17.6,120.2,17.9,118.9 M16.7,118l1,3.9     C16.8,120.8,16.4,119.4,16.7,118 M13.2,115c-1.6-1.7-1.8-3.8-1-6c2.2-3.2,8.7-4,10.6,0.7v0.7c-2.1-2.3-5.2-4-8-2.3     c-1.8,1.1-1.8,3.3-1.3,4.9c0.7,0.8,1.8,1.4,2.8,0.7l1-1l-1-0.9c-0.3,0.5-1,0.1-1.4,0.3c-0.6-0.3-0.3-1-0.3-1.4     c0.6-1.2,2.1-1.6,3.3-1c1.2,1.2,1.8,3.3,0.5,4.7C17.5,116.1,14.6,115.8,13.2,115 M25.3,120L25.3,120c-2.4-2.2-2.6-5.5-3.9-8.3     c0.4,0.4,0.7,0.8,1,1.3v-0.1c2.1,2.1,2.9,5.1,3.7,8C25.8,120.6,25.6,120.3,25.3,120 M26,127.4c-0.1,0.3-1.5-0.8-1-1.8l0.7,1.2     c-0.1-0.2,0-0.5,0.1-0.7l1,1.7C26.7,128,26.3,127.8,26,127.4 M22.5,119.1c-0.6-0.8-2.7-3.3-2.3-5.6l1.1,2.7     c-0.1-0.5-0.2-1.1-0.1-1.6l2.1,5.4c-0.5-0.7-1-1.4-1.5-2.1L22.5,119.1 M26,133.6c-1.5-1.6-2.5-3.6-3-5.8c0.4,0.2,0.7,0.5,1,0.8     c0-0.1-0.1-0.2-0.1-0.4c1.8,0.8,2.3,3.6,2.9,5.5c-0.4-0.5-0.8-1-1.1-1.5L26,133.6 M10.8,108.7c-0.3,0.5-0.9-6.4-0.9-6.4     c3.6-2.9,7.8-4.9,12.4-5.8l1.4,10.4C23.6,106.9,15.4,101.9,10.8,108.7 M13.5,66.2c1.5,0.1,3.9-0.4,4,1.7c0.2,0.9-0.2,1.8-1,2.3     h-1l-0.4-2.3c-1.3-0.3-2.5,0.5-2.8,1.7c0,0.1,0,0.2-0.1,0.3c-0.1,1.7,1.2,3.3,2.9,3.6c2.9,0.1,5.2-1.2,7.3-2.9     C22,72.4,19,74,16.8,74.8c-2.5-0.1-5.3-0.8-6.2-3.3C9.5,69.3,11.6,67,13.5,66.2 M17.2,65h-0.7c-0.8-0.7,0.7-0.7,1-1     C17.5,64.3,17.7,64.8,17.2,65 M17.9,58c0.6,1.5-0.6,3.7-2,5.2c-0.9,0-1,1.3-2,1C14.9,62,15.6,59.6,17.9,58 M24.2,47.9     c0.3,2.4-3.6,4.2-5.6,5.9C18.8,51.7,22.4,49.8,24.2,47.9 M26.2,43.4l-6.9,6.9C20.5,47.6,22.8,43.7,26.2,43.4 M21.4,69.2     c2.2-3.7,3.8-7.8,4.5-12.1C27,61.4,24.4,65.8,21.4,69.2 M21.6,59.1l4.7-8.8C25.6,53.6,24,56.7,21.6,59.1 M19.8,64.6l-0.7,0.7     c-0.1-1.6,0.1-3.3,1.7-3.7C21.4,62.3,20.6,63.7,19.8,64.6 M20.7,57.9c-0.3-3.2,1.7-5.5,3.8-7.7C23.2,52.7,22.3,55.4,20.7,57.9      M29,48.1l-1,5c0.1,0.5,0,1-0.3,1.4l0.3-1.4C28,51.5,27.5,49.2,29,48.1 M31.4,46.8c-0.2,2.4-0.8,4.8-2,6.9     C29.4,51.3,30.1,48.9,31.4,46.8 M32.9,38.9c-1.2,1.1-1.9,3.2-3.5,4.5C29.5,42.2,30.7,39.3,32.9,38.9 M35.8,42.9     c-0.7,1.1-1.3,2.2-2,3.2C33.3,45.2,34.7,43.4,35.8,42.9 M29.6,44.6c1.7-1.7,3.9-5.5,6.9-5.5C35.3,42,32.2,43.6,29.6,44.6      M38.3,34c-2.3,2.3-5.2,3-8.3,3.5C32.2,35.5,35.3,34.5,38.3,34 M40.8,31.2l-9.7,3.5C32.1,32.8,36.9,31,40.8,31.2 M47.2,30.5     c-2.2,3.3-5.5,6.8-9.7,6.9C39.3,34.6,43.2,30.7,47.2,30.5 M66.6,7.3V8h-1V7.3H66.6 M41.2,18.4c-1.2-0.6-1.1-2.1-0.7-2.9l0.4-0.4     c-2.3-1.1-5.1-3-8.2-2.9c0.8-1.1,2.7-0.8,3.8-0.4c0.4,0.4,0.4,1.5,1.4,1.1c1.9-0.8-1.2-3.3,1.7-2.7c1,1.9,0.7,3.6,3,4.7l-2.1,1.4     c0.8,1.4,2.6,2.9,4.2,1.9c1.2-4.2,5.8,0.3,7-4c1.9,0.5,3.7,2.7,5.6,0.7c1.8-4.6,5,3.2,7.6-1.4c0-1.2,1.5-2.6,0-3.6     c-0.8,0.1-1.2,1.2-2,1.4c-0.4-1-0.6-2.7-2.2-2.1c1.4-0.8,0.4-3.2,2.9-2.6C62.9,4.6,64,3.2,66,2c0.8,0.4,1.5,1.2,1.9,2     c0,0.7,0.3,1.5-0.6,1.9c-0.4-1.1-1.8-0.7-2.3-0.3c-0.9,0.6-1.3,1.6-1,2.6c0.7,0.7,1.4,1.7,2.7,1.4c1.5-0.8,1.1-2.9,2.6-3     c1.4,1,0.1,2.8,1,4c-1.2,0.3-2.3-1.6-3.3,0c0.3,1.5,0.6,3.3,2.3,4c1.5,0,3,0,4-1.4c1.4,1.5,3.7,2.8,5.6,1.4c3-3.2,4.1,4.1,7.6,1     c0.5,1.5,2.1,2.3,3.6,1.8c0.4-0.1,0.7-0.3,1-0.6c0.4-0.3,0.8-1,1.4-1C92,17.1,91.2,18,90,18.4c-3.4,0.3-4.7-3-8.2-1.9     c-0.3-0.6-0.8-1.2-1.2-1.6c-1.8,0.6-3.4,2.1-5.3,1c-2.3-3.2-6.5,2.2-8.9-1.9c-1.6,1.4-3.9,1.9-5.9,1.2c-0.4-0.5-1-0.7-1.7-0.5     c-1.1,1.8-3.3,2.5-5.2,1.6c-2.5-1.4-4,3.7-6.6,1C45.5,19.2,43.1,20.4,41.2,18.4 M50.8,6.9c0.8,0.8,2.7,1.4,2.9,3     c0.6,2.5-1.9,2.6-3.6,2.6c-1.8,0.8-1.5-1.1-2-1.9C49.3,9.5,48.8,6.7,50.8,6.9 M78.8,8c1.8-0.3,3.4-1.7,4.5,0.3l0.7,1     c0.4,1.6-1,2.6-2.3,2.6C79.8,11.6,77.2,10.5,78.8,8 M93,10.9c1.9,2.5,3.7-1.6,6.6-0.3c-3,0.1-4.9,2.5-8,2.6v0.7H90     C92.3,14,90.8,11,93,10.9 M93,9.7c-0.9,0.4-1.8,1-2.6,1.6C91,10.4,92,9.9,93,9.7 M80.1,21.7h-1.9C78.2,20.7,79.8,20.9,80.1,21.7      M67.3,20.5c-0.7,0.5-1.2,0.3-2.3,0.3C65.6,20.2,66.6,20.1,67.3,20.5 M52.8,22.4c-0.1-0.7,0.8-0.7,1.4-0.7c0,0.4-0.3,0.5-0.4,0.7     H52.8 M51.7,28c-0.2,1.1-1.4,0.7-2.1,1l-0.3-0.3C50.1,28.3,51,28.1,51.7,28 M47.5,27.7l8.8-2.7h1.4L47.5,27.7 M66.6,24l-7.5,0.7     L64,24H66.6 M72.5,24.5h-0.7l-3-0.3L67.3,24h0.3l1.2,0.1L72.5,24.5 M86.4,25.5c-11.9-3.3-26.9-4.1-38.8,0.7v-3.3     c-0.3,0-0.5-0.2-0.7-0.4c1.2-1.1,3.4-1.2,5.2-1.6c-1,0.5-1.8,1.3-2.3,2.3c1.2,1.2,3.2,0.4,4.7,0.7l3-2.3l-3-1.4     c3.6-0.5,7-1.4,10.8-1.2c-1,0.5-2.3,0.4-2.9,1.6c0.3,1.8,2.2,1,3.3,1.9c1.7-0.3,4-0.5,4.5-2.3l-2.6-1.3l10.6,1     c-0.8,0.6-2.1,0.1-2.6,1.4c1.4,1.4,3.7,3,6.2,1.9c1-1-0.3-1.9-1-2.6c2.2,0.3,4.3,0.8,6.3,1.6c-0.7,0.3-1.2,0.3-1.6,1     C85.1,24.1,85.6,25.1,86.4,25.5 M83.4,29.8c1.9-0.1,2.6,2.1,3.3,3.3c-1.3-0.6-2.6-1.5-3.6-2.6L83.4,29.8 M43.9,21.5     c12.9-6.7,32.5-5.9,45.4-0.7C75.2,16.6,58,15.8,43.9,21.5 M96.2,36c-1.6-0.6-2.7-1.7-4.2-2.7c-1,0.6,0.4,1,0.4,1.7l0.7,0.7     c-2.3-0.8-4.3-2.4-5.6-4.5c1-0.1,2.7,2.4,4.2,2L87.5,29C91.5,29.8,94.1,32.8,96.2,36 M97,32.3L95.6,32h1L97,32.3 M98.4,40.9     l-3.2-2l2,0.3L98.4,40.9 M92.3,29c2.2,0.3,4.3,0.8,6.3,1.6l-6.3-0.7V29 M102.5,36l-3.8-2.3l3.3,1.2L102.5,36 M100.5,41.9     c1.9,1.6,2.4,4.3,4.2,6.2C102.5,46.7,101.5,44.2,100.5,41.9 M106.4,48.1c-1.9-3-3-6.3-5.9-8.9C103.6,41.2,105.7,44.4,106.4,48.1      M107.1,40.6l3,4l-6.5-5.8L107.1,40.6 M118.4,61.9c-4.6-2.3-4.9-7.5-9.1-10.7C113.6,52.7,116.8,57.9,118.4,61.9 M115.6,62.4     l0.7,0.5l-0.3,0.4L115.6,62.4 M111.3,65.9c2.6,0.1,1.9,3.6,3,4.2c-1.5-0.1-2.8-1.1-3.3-2.6L111.3,65.9 M109.1,53.3     c3,2.2,3.4,5.4,4.4,8.5c0.1,0.3,0.2,0.5,0.3,0.8c0.3,0.8,0.7,1.6,1.2,2.3l-0.4,0.3c-0.2-0.9-0.4-1.8-0.8-2.6     c-0.1-0.2-0.2-0.5-0.3-0.8C112.3,58.9,110.4,56.1,109.1,53.3 M107.7,45.1l2.2,2C108.7,47,107.8,46.1,107.7,45.1 M110.1,65.4     l-0.3,0.4c-1.9-3-3.4-6.2-4.2-9.7C107.6,58.7,110.3,61.6,110.1,65.4 M121.3,67.3c1,2.6-1.4,4.7-3.3,5.5c-2.9,0.6-5.8-0.5-7.6-2.9     c1.9,2.3,6.3,2.5,9.2,1.2c0.9-0.8,1.3-2.1,1-3.3c-0.8-1.1-2.2-2.2-3.6-1.2l-0.3,0.3c0.4,0.5,1.1,0.3,1.7,0.7     c0.1,0.6-0.2,1.2-0.7,1.6c-1,0.3-2.1-0.4-2.3-1.4c-0.3-1.2,0.4-2.4,1.6-2.8C118.9,64.3,120.4,65.8,121.3,67.3 M130.4,86.4     c-3.4-2.9-0.8-7-2.6-10.6c-0.1-1.9-2.5-5.2-4.2-3v-1c1.1-3.3-1.5-6.2,0-8.5c-4.3-2.6-4.7-7.4-8-10.6c-2.8-7.3-5.9-15-12.5-20     c0.7-1,0.7-2.3,0-3.3c-4.7-1.1-9.1-4.9-14.1-3c-0.3-3.1,3-4.1,3.6-6.9c3.6-1.9,4.5-6.7,8.9-7c0-1.2,1.8-2.8-0.3-3.6     C97.1,9.6,94.1,6.3,90,8c-3.7,5-3.4-2.2-6.6-3c-1.9-1-3.6,0.4-5.6,0.3c-2.6,0.8-0.6,4-2.6,5.3c-0.6,0.1-1.3-0.2-1.7-0.7     c2.6-3.7-3-4.1-3.3-6.6C69,1.4,67-0.2,64.6,0C60.9,2.8,58,6.3,57,10.9C55.5,9,54.7,7.2,53,5c-1.9-0.5-4.5-0.5-5.9,1.4     c-3.2,1.8,1,5.2-1.7,6.9l-1-3c-1.8-0.7-3.6-2.2-5.8-2.7c-2,3.3-6.6,0.4-8.6,3.7c-1.2,4.9,4.9,2.8,5.6,6.6c4,2.6,8.5,5.9,7.3,10.9     c-8-1.4-14.5,4.8-19.1,10.6v1.9c-5.3,3.6-7.1,9.7-9.9,14.8c2.3,7.1-9.8,10.8-5.3,18.8c-1.4,0.3-1.7-2.2-3.3-1.4     C3.5,76.3,3.5,80.5,4,84c-1.2,2.6-5.2,4.5-3.7,8c6.9,3.4,0.3,12.2,5.7,16.5l2-1.1c0.3,1.6,0.6,4,1,6c0.9,2.4,2.8,4.3,5.2,5.2     c0.4,1-0.6,1.4-0.7,1.9c2.8,3.4,4.4,7.8,6,11.9l1.6,1l3.3,8.2c1.8,2.2,0.5,5.5,3.6,7.3c0.7,0,1.5,0.1,1.9-0.7     c4.1,3.4,9.1,6.2,12.2,10.2l1.7,0.4c2.9-2.3,5.8,1.5,8.9,1.2c4.2-0.6,8.8,8.7,11.5,1.1c0.8,0.7-0.4,1.4,0,2.2     c3.5,1.1,7.3,1.1,10.8,0c4.2-3,10.6-3.2,15.2-6.2c5.1,0.8,7.8-5.8,11.8-8.6c5.1,0,5.4-6.2,8.2-9.2c0.1-5.8,6.2-8.2,6.9-13.9     c1.9-2.6-1.2-8.2,2.8-9.2c3.4-2.1,4.1-5.9,4.5-9.5c1.5-0.8,3.9-2.3,4.2-4.4C127.9,96.1,131.6,92.8,130.4,86.4"/>
			<path id="_Trazado_compuesto_13" class="st0" d="M60.3,138.1c-7.8-1.7-15.5-7.6-18.8-14.8c4.7,0.6,7.4,2.7,12.6,1.9     c0,0.3-0.3,0.6-0.4,0.7l2.3,1.2c-0.7,0.7-2.1,0.8-2.3,2.1c0.6,1.2,1.8,0.4,2.6,0.7c0.3,0.3-2.2,2.2,0,2.9     c5.3-1.1,11.5,2.2,15.9-0.7c4.7,0,9.7,0.6,13.2-2.9H87C80.4,136.9,70.2,139.5,60.3,138.1z M40.6,121.2h2.1c0,0.6-0.5,0.8-1.1,0.7     h-1V121.2 M36.3,112.3c1.2-1.2,4.4-1.7,6.6-1h1.4c2.1,2.9-2.3,4-2.1,7c0.6,1.2-0.8,1.4-1.6,1.2C38.1,118.4,37.6,114.7,36.3,112.3      M36,110.1c-6.3-16.5-3.2-37.2,5-51.7c0.3,1-0.7,2.1,1,2.9c-1-0.1-1.7,1.1-2.1,1.6c2.1,2.9,0.7,7.3,1.1,11l1.9,2.6     c-0.7,7.3-0.1,13,0.7,20.4c-1.4,3.8-2.3,8.7,0,12.8C41.3,110.2,38.6,109.9,36,110.1 M63.3,41.9c10.6-1.2,19.4,3.7,25.4,11.8     c10.1,16.1,13.1,35.7,8.3,54.1l-8,0.3c0.3-14.3-0.8-28.4,0.7-41.5L88,65c0.6-0.8,2.3-1.8,1.7-3.3l-2.1-1.4     c2.4,0.1,1.1-2.3,1.4-3.6c-3.7-1.4-8.7,0.1-13.2-0.4c-1.7,0.7-0.7,2.3-0.7,3.3c0.4,0.3,0.5,0.8,1,0.7c-0.7,0.4-3.4,1.7-1.9,3.3     c4.5-0.3,2.2,5.1,2.3,7.3c-0.8,1-2.8,1.5-3.7,0.3c-1-2.2-3.4-1-4.9-2.2c0.8-2.9,1.8-6.4-0.3-8.9c-1.6-1.7-4.6-1.7-6.6,0     c-1,1.9-1.6,3.3-0.6,5.6c0.5,1.5,1.4,1.8,1.3,3.6c-2.1,0.8-4.7,0.8-5.6,3.3c-2.7-0.7-1.5-4.8-2.3-7.3c0.8-0.1,1.4-1.1,2.1-1.7     c0.5-1.4-1.1-2.5-2.1-2.6c0.7-0.2,1.2-0.7,1.4-1.4c-0.1-1,0.4-2.5-1-2.6l-12.6,0.4C45.3,48.2,55,43.1,63.3,41.9 M94.6,115.1     c-0.7-2.1-1.5-4.7-4-5h-1.4v-0.7h7.3C96.1,111.3,95.2,113.1,94.6,115.1 M93.3,118.8l-1.9,0.7l-0.7-1.7     C91.6,117.2,94.1,117.6,93.3,118.8 M72.5,108.1c0.1,0.6-0.1,1.3-0.7,1.6l-2.3-2.9l-1,0.6l-0.7-1.7     C69.5,106.5,72.9,105.3,72.5,108.1 M67.6,99.8c3-1.2,3.4-6.4,5.9-6.9l0.7,4c-0.8,1-1.1,2.3-0.7,3.6h0.7l-1.7,1.7l-0.3-0.3     l-2.3,2.2C69.9,102.1,68.6,101.5,67.6,99.8 M63.6,95.9l1.9,1c0.4-0.1,0.7,0,0.8,0.4l-0.8-0.4C64.5,97,63,97.9,63.6,95.9      M62.6,93.2v1l-1-1.2L62.6,93.2 M61.8,63.4c-0.9-3.8,4.8-2.7,5.1-1.1C66.8,64.1,63.6,64.7,61.8,63.4 M67,66.4     c-0.1,0.4-0.2,0.7-0.4,1.1c0.2,0.2,0.3,0.4,0.4,0.6c-0.4,0.9-1.9,1.4-3.7,0.8L62.8,68c0,0,0,0,0-0.1C62.3,67.4,62,66.7,62,66     l-0.1-1.6c0.9-0.2,1.7,0.3,2.1,1.2c0,0.5-0.1,1.1-0.2,1.6c0.3-0.2,0.7-0.3,1-0.3c0.1-1,0.5-2,1.2-2.7     C66.3,64.3,67.6,64.1,67,66.4 M67.8,89.3c-2.4-2.1-3.2-5.3-4.2-8.3c2.5-2.9,4.3,1.5,7.3,0c0.1,1.4-1.4,2.5-2.3,3     C67.5,85.8,69.6,87.7,67.8,89.3 M71.2,91.6c-1-0.1-2.5,0.4-2.6-1c2.5-1.4,1.5-4.5,2.6-6.6C70.2,86.5,71,88.9,71.2,91.6      M68.6,79.1c-2.3-1.2-3.6,1.5-5.6,0.3c-0.8-1.9-1.2-3.9-1-5.9l1.6-1c-0.7-0.6-1.4-1.5-0.7-2.3c1.8-0.5,3.1,6.3,4.9,2.1     c2.1-0.7,4.9-0.5,4.7,2.2C72.2,76.4,71.4,79,68.6,79.1 M77.4,92.2c-1,0.3-1.5,0.9-2.6,0.7c0.4-2.2-2.7-1.8-2.3-4L77.4,92.2      M80.3,71.2c0.1-0.1,0.2-0.1,0.4-0.2L80.3,71.2c-0.1,0.1-0.2,0.2-0.3,0.3c0.7,1.1,1.6,2.1,2.6,2.9c1.7-0.6-0.3-1.4,0-2.2     c0.6,0.8,1.2,2.1,3,1.7L81,75.5c0.4-0.4,1-0.8,0.7-1.4c-1.6-0.5-2.5-2-3.7-2c-0.4,0.1-0.7,0.3-1.1,0.5c-0.3,0.2-0.6,0.5-0.8,0.8     c0,1.2,1.4,1.8,2.1,2.6c1.1-0.4,1.1-1.4,2.3-0.3c-1.5,0.8-3.2,1-4.4,2.3c-0.1-1.6-0.8-2.9-0.6-4.7c0.4-0.3,0.9-0.6,1.4-0.8     c0.3-0.3,0.7-0.4,1.1-0.5C78.8,71.9,79.5,71.6,80.3,71.2 M87.3,58.6c-4,0.1-7.6,1.2-10.8,0l0.7-1h10.2L87.3,58.6 M87.6,70.6     L87,69.2h0.6V70.6 M86.4,67.8c-2.5,1.5-5.5,1.2-8,2.8V65C81.4,69,87.7,59.5,86.4,67.8 M83.4,64c-1.2,0-2.6,1.4-3.6,0H83.4      M87.4,95.6c-1-5.3-8-3.8-9.2-9.2v-8c2.6-1.5,5.6-2.2,8.5-3.3C87.5,82.1,88.1,88.3,87.4,95.6 M89.3,118.9v1.1     c-3.8,0.1-8.5,1.1-11.5-0.4C81.8,119.3,85.4,118.8,89.3,118.9 M87.4,117.7c-2.7,0.4-5.5,0.4-8.2,0     C81.8,117.3,84.9,116.3,87.4,117.7 M79.4,115.6c2.7-0.4,5.5-0.5,8.2-0.3C85,116.4,82,116,79.4,115.6 M85.4,105.7     c1-0.5,1.7-1.5,1.9-2.6l-0.2,5.9C84.3,109.4,86.3,106.8,85.4,105.7 M73.9,88.7c0.1-1.5,2.3-2.9,3.6-1.4s1.7,3,3.3,4.3     C79,91.8,76.9,87.9,73.9,88.7 M78.8,95.6c1.2,0.6,1.9-0.9,1.7-1.9c1.2-0.4,2.1,0.4,2.9,1c-0.7,0-1.7-0.3-2.3,0.3     c0.7,1.9,3.2,1.9,4.7,1.4l0.3,2.6c-0.5-0.2-1.1-0.3-1.7-0.3c-1.4,1.7,0.3,4.4-2.6,4.2c-0.3,0.6-1.2,0.8-1,1.7     c0.7,0.4,1.1,0.4,1.4,1.2v0.4c-0.8,0.7-2.6,0.3-2.3-0.9c-0.6-1.5-1.4,0.4-2.1-0.7c1.7-1.4-1.1-3-2.2-3c0.1-2.9-0.8-6,2.6-7.6     C78.1,94.5,77.7,95.7,78.8,95.6 M74.2,107.1c-0.4-1.4,0.7-2.3,1.4-3c0.6,0.2-1.2,0.8-0.7,1.7c0.7,2,5.6-0.2,3.3,3.3     C76.8,107.7,75.3,109.3,74.2,107.1 M75.8,116.7l-1.4,0.6v-0.6H75.8 M74.4,113.5c1.1-1.1,2.5,0.4,3,0     C76.7,115.4,75.9,112.3,74.4,113.5 M90.6,114l0.7,0.7h-1C90.5,114.5,90.6,114.3,90.6,114L90.6,114L90.6,114     c0-0.1-0.1-0.5-0.3-0.5c-2.9-2.6-7.4,1.1-9.6-2.8c0-5.5,3.4-0.3,5.6,0c1.5,1.7,5.6-0.6,5.6,2.8c-0.3-0.3-0.4-0.4-0.7-0.4     C91.1,113.4,90.6,113.6,90.6,114C90.6,113.9,90.6,114,90.6,114 M75.6,82.4l-0.4,3c-1,0-1.9,0.1-1.9-1.1     C73.2,83.3,74.3,82,75.6,82.4 M74.5,81.4h-1l0.4-7.3C75.1,76.4,74,79.1,74.5,81.4 M60.3,75.8c0.3,0.6,0.4,1.3,0.3,2     c1,4.9,3.7,9.2,6,13.6l2.9,2.6c-0.5,0.1-0.9,0.3-1.2,0.7v0.9c-1.8-0.7-3.8-1.8-4-3.5c-1-2.3-4-1.5-4.3-4c1.2-1,1.9-3.6,0.7-4.9     c-1.7-1.4-0.4-3.4-0.1-5.3C60.5,77.2,60.4,76.5,60.3,75.8 M58,99.1l2-5.5c-0.5,1.6-0.5,3.4,0,5l1-2.7l3,6.3     c0.4-0.1,0.3-0.7,0.3-1c1.1,0.7,0.7,2.3,0.3,3.3l-0.3,0.3c-0.2-0.6,0.3-1.2-0.3-1.6c-3,1.8,1.9,7.5-3,7.3     C59,107,57.9,103.1,58,99.1 M59.1,117c0,0.3,0,0.8-0.4,1h-0.3C57.6,117.7,58.7,117,59.1,117 M58.7,90v0.7h-1v-1     C57.9,89.7,58.5,89.5,58.7,90 M58.7,86.7l-0.2-4c-0.1-0.3-0.1-0.6-0.1-0.9l0.1,0.9C58.8,84,60.2,85.3,58.7,86.7 M58.7,75.5     L58,74.4h1.1C59.2,74.9,59,75.3,58.7,75.5 M50.2,118.4c-0.5,0.6-0.3,1.7-0.4,2.6c-1,0.6-2.3,0.3-3.6,0.3     C46.3,120.4,48.4,117.2,50.2,118.4 M45.5,116.3c0.6,0,1.7,0.1,1.4,0.9c-1,0.6-1.8,1.4-3,1.1C44.3,117.6,44.3,116.4,45.5,116.3      M46.9,112.4h-0.7c0.1-1.4-0.2-2.7-1-3.8C46.4,109.5,46.5,111,46.9,112.4 M53.5,107.9c-1.2-0.4-0.8,0.8-1.4,1.2     c0.2,0.2,0.3,0.3,0,0s-0.8-0.6-1.2-0.3c-1,0.8-1.2,2.3-0.4,3.3h-1.3v-1.7h-1.1c2.5-0.8,2.9-5,6-4c-0.3,1.7,0.1,3.7,1.7,4v0.9     c-0.5-1.2-1.7-0.3-2.3,0C53.8,110.2,53.8,108.9,53.5,107.9 M48.1,101.2c2.2-0.4,4.9-0.1,6.3-1.7c-0.1,0.3-1.1,1.9-0.3,2.9     c0.5,0,0.8-0.6,1.2-1c-0.1,2.3,3.2,2.6,1.4,5.4l-1.4,1.2c-1.2-1.5,2.2-1.9,1-4c-1.8-1.4-3.8,1.2-4.9,0.4c-0.4,0-1-0.3-1.2,0.3     c0,0.4-0.1,0.8,0.3,1l-1.7,1.1c-0.5-1.8-1.7-3.4-3.3-4.4h-1.6C45.1,100.6,47.2,103.5,48.1,101.2 M48.8,71.5     c-2.3-0.1-4.8-1.2-6.6-1.7v-0.7C44.1,70.7,46.6,70.7,48.8,71.5 M53.5,59.3L42.6,60c-0.4-1.4,0.4-1.2,1.2-1.7     c3.3,0,6.6-0.3,9.6,0.3L53.5,59.3 M52.1,73.2v-0.7l1,0.7H52.1 M51.8,65c1.6,1.1,0.7,4,1,5.9C50,70.7,47.2,70,44.6,69     c-0.5-0.7-0.3-1.8-0.3-2.7C46.5,66.5,49.8,67.1,51.8,65 M44.9,61.7V61l6.3,0.3L44.9,61.7 M47.2,63.6v-0.3c0.5,0,1.4-0.3,1.7,0.3     H47.2 M49.8,65c-1.2,0.4-3.4,0.7-4.5-0.4C46.5,65.3,48.2,64.9,49.8,65 M47.8,75.5l-2.3-0.4c1-0.2,1.9-0.6,2.1-1.7     C47.7,74.3,46.7,75,47.8,75.5 M51.1,93c0.1,2.5-2.6,2.1-3.3,4.2c-1.1-0.3-1.8,0.7-3,0.3l-0.5-21l8.7,1.9     C55,83.9,50.4,87.6,51.1,93 M55.8,85.7c0.3,1.4-1.1,3-1.1,4.7c-2.2,1.9-0.7,5.8-4.2,6.9c2.6-1.5,1.8-7,3.3-9.6L55.8,85.7      M55.4,80.1l0.4-4l0.3,3.3L55.4,80.1 M56.1,81.7c0-0.7-0.1-2.1,1-1.7C57.2,80.9,56.9,82,56.1,81.7 M56.1,96.9h-0.7     c-0.4-1.1-0.7-2.9,0.4-3.7C57.3,94.1,55.5,95.4,56.1,96.9 M55.4,120v0.9c-1.5-0.3-2.8,1.1-4.2-0.4     C51.7,118.9,54.1,119.7,55.4,120 M48.8,115.6c3-1.9,6.2-0.4,9.2-2.2l0.4,0.3C57,117.8,51.5,115.4,48.8,115.6 M62.9,120.5     c-0.8-2.9-3.8-4.5-2.2-8.2l1,1.1c0.4-0.3,0.3-0.7,0.3-1.1c0.4,0,0.8,0,1,0.4c-0.2,1.2-4.3,1.4-1.7,2.9c3.2-1.2,2.9,2.3,3.3,4     c0.3,3.4-0.5,7.3,0.7,10.3h-2.9C67.1,126.7,61.3,124.7,62.9,120.5 M67.3,117.3h-0.7l0.3-1.2C67.5,115.9,67.2,116.8,67.3,117.3      M66.2,112.3L66,112c0.4-0.6,1.4-0.1,1.7-1c-2.2-0.6-2.3-3.4-1.7-5.3c1.2,2.4,1.9,5,1.9,7.7C66.9,113.5,66.5,113.2,66.2,112.3      M69.3,119.5c-1-3,1.5-6.1,3.3-7.8c1,5.1-3.3,15.2,4.7,18.1c-2.5,0.4-4.1-1.9-6.3-1.1C69.8,125.4,73.3,121.1,69.3,119.5      M88.4,127c-4-0.8-8.9,0.4-13.4-0.9l-0.4-1c2.9-2,7.6,1.4,9.9-1.6l-0.6-0.7H91c0.8-0.3-0.3-1.9,1.1-1.2     C90.8,123.3,90.5,125.7,88.4,127 M90.8,127.6c13.9-22.4,12.9-55.7-2.9-76.7c-6.7-7.8-15.7-10.6-26.1-9.6c-9.7,1.2-18,7.2-22.3,16     l-1.2,2.3C34.4,69,31,78.1,31.1,89.5c-1,10,2.3,18.4,4.4,27.4l0.6,1.2v0.1c4.3,12.2,15.1,22.4,28.6,22.7     c10.7,0.7,19.8-5.1,25.9-13.2"/>
			<path id="_Trazado_54" class="st0" d="M25.5,81.7L25,80.1c1.4-0.8,3.6,0.3,5.4,0.4v-1.7c-1.6,0.6-4,0.3-5-1.1l0.7-1.2     c-1.9,0-1.8,2.7-2.3,4.3c0.1,0.7,0.8,1.1,1.5,1C25.3,81.7,25.4,81.7,25.5,81.7z"/>
			<path id="_Trazado_55" class="st0" d="M107.1,78.4c-2.3,0.4-1.9,4.7-4.2,4c-0.8-1.1,0-2.3,0.3-3.3h-1c-2.3,1,0.3,2.9,0.3,4.2     c3,2.1,3.4-2.1,4.9-3.3l1.1,1c-0.3,0.7-1,1-0.7,1.7c0.6,0.2,1.3,0,1.7-0.6C109.1,80.7,108.8,79,107.1,78.4z"/>
			<path id="_Trazado_56" class="st0" d="M22.5,85.7c-0.2,3.3-0.2,6.7,0,10l0,0V85.7z"/>
			<path id="_Trazado_compuesto_14" class="st0" d="M28.1,86.6c0.1,0.4-0.1,0.6-0.3,0.7h-1.1C26.7,86.6,27.5,86.6,28.1,86.6z      M25.7,88l4,1.9c0.4-0.2,0.3-0.7,0.3-1c-3.8-1.1,0.7-3.4,0-5.2c-1.8,0.6-3.3,1.8-5.2,2.2c0.3,1.7-1.9,2.7-0.7,4.4     C25.2,90,24.6,88.5,25.7,88"/>
			<path id="_Trazado_compuesto_15" class="st0" d="M118.4,89.7c1.6-0.5,3.3-0.6,4.9-0.4C122.2,90.3,119.8,90.1,118.4,89.7z      M111.4,89.7V90l12.2,1c0.5-0.1,1.5-0.8,1.4-1.7l-0.4-1C120.5,87.2,115.7,88.7,111.4,89.7"/>
			<path id="_Trazado_compuesto_16" class="st0" d="M6.9,91.6v-1l5.6,0.3C10.6,91.2,9,91.9,6.9,91.6z M5,90.9     c3.2,3.6,9.2,0.6,13.5,0c-3.6-1-7.8-0.6-11.5-1.7L5,90.9"/>
			<path id="_Trazado_57" class="st0" d="M24.5,98.2c0.4,2.6,3.8-0.7,5.9,0.4c-0.1-1.2,0.3-2.7-0.4-3.7c-1,0.1-2.2,1.2-3.3,0.4     l2.7-3.7l-5.6-0.3v1.2c1.1-0.1,2.8-1.2,3.6,0c-1,1.8-4,2.3-3.3,4.4c1.6-0.4,3.8-1.4,5.4,0C28.3,98.3,25.9,98.3,24.5,98.2z"/>
			<path id="_Trazado_58" class="st0" d="M73.2,97.5c0-1.2,0.1-2.2-1.4-2.2C71.4,96.4,72.7,96.8,73.2,97.5z"/>
			<path id="_Trazado_compuesto_17" class="st0" d="M107.4,98.9l-0.3-1h0.7C107.8,98.2,107.8,98.7,107.4,98.9z M102.5,95.3v1.9     c0.9-0.6,2.2-0.5,3,0.3c-0.7,1.7,2.2,1.9,2.3,3.3c1.3-1.3,1.7-3.2,1-4.9C106.7,96.6,104.4,96,102.5,95.3"/>
			<path id="_Trazado_59" class="st0" d="M76.8,96.9c0,0.8-0.8,2.5,0.4,3.3c1-0.7,3.2-0.1,3.3-1.7h-2.8c-0.1-0.8,0.4-1.4,0.7-2.1     C77.9,96.7,77.2,96.2,76.8,96.9z"/>
			<path id="_Trazado_60" class="st0" d="M82.7,98.6c0.4-0.4,1-0.8,0.7-1.4c-1-0.4-1.2,1-1,1.4H82.7z"/>
			<path id="_Trazado_61" class="st0" d="M23.2,79.1l1.4-7.5C24,74.1,23.5,76.6,23.2,79.1z"/>
			<path id="_Trazado_compuesto_18" class="st0" d="M162.8,114.9h8.2l4.7-17.5H196l4.5,17.4h8.2l-17.1-63.6h-10.5L162.8,114.9z      M186.1,60.3h0.2l8.1,30.7h-17.1L186.1,60.3"/>
			<path id="_Trazado_62" class="st0" d="M204.4,67.2h8.2l9.4,38.3h0.2l8.4-38.3h8.2L225,118.1c-1.8,6.6-3.7,12.5-12.7,12.5     c-1.8,0-3.6-0.1-5.4-0.3v-5.9c1.4,0.2,2.9,0.3,4.4,0.3c3.5,0,5-2,5.9-4.6l1.4-4.2L204.4,67.2z"/>
			<path id="_Trazado_63" class="st0" d="M271.6,114.9h-7.1v-5.6h-0.2c-2,4.4-7,6.9-11.6,6.9c-12.6,0-12.6-9.5-12.6-15.1V67.2h7.5     v32.9c0,3.7,0.3,9.6,7,9.6c5.1,0.1,9.3-3.9,9.4-9c0-0.2,0-0.4,0-0.7V67.2h7.5L271.6,114.9z"/>
			<path id="_Trazado_64" class="st0" d="M276.9,67.2h7.1v5.6h0.2c2-4.4,6.9-6.9,11.6-6.9c12.5,0,12.5,9.5,12.5,15.1v33.8h-7.5v-33     c0-3.7-0.3-9.6-7-9.6c-5.1-0.1-9.3,3.9-9.5,9c0,0.2,0,0.4,0,0.7v33h-7.5L276.9,67.2z"/>
			<path id="_Trazado_65" class="st0" d="M315.9,53.2h7.5v13.9h8.3V73h-8.3v30.6c0,3.8,1,5.3,4.9,5.3c1.1,0,2.2-0.1,3.3-0.3v6.2     c-2,0.4-4,0.5-6.1,0.5c-7.7,0-9.6-3.2-9.6-9.4V73H309v-5.8h7L315.9,53.2z"/>
			<path id="_Trazado_compuesto_19" class="st0" d="M338.6,81.6v-0.4c0-1.7,0-9.3,8.2-9.3c5,0,7.7,2.6,7.7,7c0,4,0,5.5-5.4,7.2     L339,89c-6.1,1.9-9,6.5-9,13.2c0,8.6,4.1,13.9,13,13.9c4.8-0.1,9.1-2.7,11.5-6.9h0.2c0.4,6.2,3.9,6.2,6.8,6.2     c1.5,0,2.9-0.2,4.4-0.4v-5.3c-0.5,0.3-1.2,0.5-1.8,0.4c-2.3,0-2.3-1.9-2.3-3.8V79.6c0-5,0-13.7-14.5-13.7c-11.4,0-16,4.8-16,15.7     H338.6z M354.2,101.2c0,4.9-4.7,9.1-9.6,9.1c-5.1,0-6.8-3.4-6.8-8.2c0-4.2,1.2-6.1,3.6-7.6c3.4-2.1,10-2.7,12.7-5.6L354.2,101.2"/>
			<path id="_Trazado_66" class="st0" d="M368.1,67.2h7.1v5.6h0.2c2-4.4,7-6.9,11.6-6.9c5.5,0,8.8,2.1,10.3,7.6     c2.1-4.2,6.4-7.6,11.3-7.6c12.5,0,12.5,9.5,12.5,15.1v33.8h-7.5v-33c0-3.7-0.3-9.6-6.4-9.6c-3.5,0-8.9,2.1-8.9,9.6v33h-7.5v-33     c0-3.7-0.3-9.6-6.4-9.6c-3.5,0-8.9,2.1-8.9,9.6v33H368L368.1,67.2z"/>
			<path id="_Trazado_compuesto_20" class="st0" d="M427.7,51.3h7.5v8.5h-7.5V51.3z M427.7,67.2h7.5v47.7h-7.5V67.2"/>
			<path id="_Trazado_compuesto_21" class="st0" d="M472.3,91.9v-3c0-10.2-1.3-23-16-23s-17,13.8-17,25.7c0,16.4,4.9,24.5,16.6,24.5     c13,0,16-11.8,16-16.9h-7.5c0,3.6-1,11-8.1,11c-9.2,0-9.2-11-9.2-18.4L472.3,91.9z M447.5,86v-1.8c0-2.8,0.9-12.5,8.7-12.5     c6.6,0,8.3,6.3,8.3,11.7V86H447.5"/>
			<path id="_Trazado_67" class="st0" d="M476,67.2h7.1v5.6h0.2c2-4.4,7-6.9,11.6-6.9c12.5,0,12.5,9.5,12.5,15.1v33.8H500v-33     c0-3.7-0.3-9.6-7-9.6c-5.1-0.1-9.3,3.9-9.4,9c0,0.2,0,0.4,0,0.7v33H476V67.2z"/>
			<path id="_Trazado_68" class="st0" d="M515,53.2h7.5v13.9h8.3V73h-8.3v30.6c0,3.8,1,5.3,4.9,5.3c1.1,0,2.2-0.1,3.3-0.3v6.2     c-2,0.4-4,0.5-6.1,0.5c-7.8,0-9.6-3.2-9.6-9.4V73h-7v-5.8h7L515,53.2L515,53.2z"/>
			<path id="_Trazado_compuesto_22" class="st0" d="M529.1,91c0,13.4,3.4,25.1,17.2,25.1s17.2-11.7,17.2-25.1s-3.4-25.1-17.2-25.1     S529.1,77.6,529.1,91z M546.1,110.2c-7.7,0-9.2-8.9-9.2-19.2s1.6-19.2,9.2-19.2c8,0,9.5,8.9,9.5,19.2S554,110.2,546.1,110.2"/>
			<path id="_Trazado_compuesto_23" class="st0" d="M614.9,51.3h-7.5v21.3h-0.2c-1.7-4.1-6.2-6.7-10.5-6.7     c-13.5,0-15.1,15.1-15.1,25.1c0,15.1,4.3,25.1,15.6,25.1c5.2,0,9.3-3.6,10.3-7.1h0.2v5.9h7.1L614.9,51.3z M589.5,91     c0-11.4,1.8-18.7,8.7-18.7c8,0,9.6,9.4,9.6,18.7c0,10.9-1.3,18.7-9.6,18.7C591.3,109.7,589.5,102.4,589.5,91"/>
			<path id="_Trazado_compuesto_24" class="st0" d="M651.6,91.9v-3c0-10.2-1.3-23-15.9-23s-17,13.8-17,25.7     c0,16.4,4.9,24.5,16.6,24.5c13,0,16-11.8,16-16.9h-7.5c0,3.6-1,11-8.1,11c-9.2,0-9.2-11-9.2-18.4L651.6,91.9z M626.7,86v-1.8     c0-2.8,0.9-12.5,8.7-12.5c6.6,0,8.3,6.3,8.3,11.7V86H626.7"/>
			<path id="_Trazado_69" class="st0" d="M699,72.8c0-9.3-1.9-13.3-7.7-13.3c-6.5,0-8,6.5-8,24.5c0,19.2,2.7,22.7,8.2,22.7     c4.6,0,8-2.4,8-16.1h12.8c0,13.7-3.4,25.6-20.2,25.6c-19.2,0-21.6-13.7-21.6-33s2.4-33,21.6-33c18.3,0,19.7,13.5,19.7,22.7     L699,72.8z"/>
			<path id="_Trazado_compuesto_25" class="st0" d="M725.8,81.7v-1.3c0-3.7,2-6.2,5.7-6.2c4.1,0,5.7,2.2,5.7,5.9     c0,3.2-1.2,4.6-4.9,5.6l-6.9,1.9c-8.5,2.3-12.1,6-12.1,15c0,6.4,3,13.7,11.6,13.7c5.9,0,9.4-1.2,12.2-6.2h0.2     c0.3,1.7,0.8,3.4,1.5,5h11.8c-1.2-2.8-1.5-4.8-1.5-9.3V80.4c0-8.6-2.8-14.7-17.4-14.7c-9.3,0-16.8,3.7-16.8,14.8v1.2     C714.9,81.7,725.8,81.7,725.8,81.7z M726.4,61.4h8.4l8.7-12.8h-12.3L726.4,61.4 M737.2,100.4c0,5.2-4.3,7.4-7.6,7.4     s-4.6-3-4.6-6.7c0-4.3,2-6.7,6.9-7.8c1.9-0.5,3.7-1.3,5.3-2.4L737.2,100.4"/>
			<path id="_Trazado_compuesto_26" class="st0" d="M777.8,114.9h11.8V51.3h-12.3v20.1H777c-2.6-3.8-5.7-5.7-10.3-5.7     c-10.1,0-14.7,7.4-14.7,25.2s4.6,25.2,14.7,25.2c4.8,0,8.2-1.9,10.9-6.3h0.2L777.8,114.9z M764.3,90.9c0-10.4,1.1-15.8,6.4-15.8     s6.5,5.3,6.5,15.8s-1.1,15.8-6.5,15.8S764.3,101.3,764.3,90.9"/>
			<path id="_Trazado_compuesto_27" class="st0" d="M793.7,50.6H806v10.5h-12.3V50.6z M793.7,67H806v47.9h-12.3V67"/>
			<polygon id="_Trazado_70" class="st0" points="808.2,105.4 827.4,76.9 809.1,76.9 809.1,67 841.9,67 841.9,76.4 822.7,104.9      841.9,104.9 841.9,114.9 808.2,114.9    "/>
		</g>
	</g>
</g>
</svg>