<svg id="Capa_1" data-name="Capa 1" xmlns="http://www.w3.org/2000/svg" viewBox="0 0 841.89 595.28"><defs><style>.cls-1{fill:#20b3aa;}.cls-2{fill:#3c3c3b;}.cls-3{fill:#b2b2b2;}</style></defs><path class="cls-1" d="M326,378.5c.57-.16.81-.65,1.07-1.09,1.51-2.55,3.06-5.08,4.48-7.68,2-3.62,3.82-7.31,5.74-11,6.08-11.62,12.34-23.15,19.2-34.35a228.46,228.46,0,0,1,19.13-26.88,163.84,163.84,0,0,1,23.94-23.6,89.69,89.69,0,0,1,27.74-15.1,76.14,76.14,0,0,1,18-3.7c2.11-.16,4.22-.4,6.33-.46a83.3,83.3,0,0,1,22.93,2.8c2.87.73,5.71,1.59,8.52,2.52A43.78,43.78,0,0,1,503,273.58a100.63,100.63,0,0,1,7.35,10,140.67,140.67,0,0,1,9.28,16.62,319.6,319.6,0,0,1,12.68,31.13c3.73,10.58,7.7,21.06,12.13,31.36a154.49,154.49,0,0,0,9.17,18.11A43.69,43.69,0,0,0,558,387a26.15,26.15,0,0,0,11.06,7.72,94.4,94.4,0,0,0,16.82,4.55,56.34,56.34,0,0,0,8.2.89c2.33,0,4.66.17,7,.27a105.15,105.15,0,0,0,10.8-.05c5.92-.36,11.84-.67,17.75-1a26.14,26.14,0,0,1,5.08.15,7.87,7.87,0,0,1,4,1.72,2.59,2.59,0,0,1,.46,3.67,10.83,10.83,0,0,1-2.77,2.59,30.72,30.72,0,0,1-5,2.76,73.52,73.52,0,0,1-10.76,3.8,146.73,146.73,0,0,1-19.24,4c-4.31.58-8.62,1-13,1.25q-9.53.58-19,.4-8.58-.18-17.12-1c-4-.37-8-.85-12-1.48-13.78-2.2-27-6-39.35-12.74a101.32,101.32,0,0,1-23-16.84,88.11,88.11,0,0,1-16.34-22.14,95.44,95.44,0,0,1-7.8-19.39c-.9-3.38-1.6-6.8-2.2-10.23q-1.27-7.35-2.39-14.72c-.37-2.41-.59-4.83-.87-7.25-.34-2.95-.69-5.89-1-8.84-.26-2.52-.47-5.05-.7-7.58-.28-3.17-.51-6.34-.84-9.49s-.77-6.3-1.16-9.45c-.12-1-.63-1.14-1.26-1a47.15,47.15,0,0,0-22.91,10.22,75.35,75.35,0,0,0-12.43,13.54,99.21,99.21,0,0,0-10.54,18.78,150.71,150.71,0,0,0-8.27,24.63c-2.21,8.94-4.28,17.9-6.12,26.92-1.23,6-2.32,12-3.47,18.07-.82,4.26-1.6,8.52-2.47,12.77-.3,1.44-.79,2.85-1.23,4.26a12.19,12.19,0,0,1-4.68,6.24,25.2,25.2,0,0,1-5.57,3,62.42,62.42,0,0,1-10.63,3.16A99,99,0,0,1,330.22,421a50.07,50.07,0,0,1-9.11-1.26,25.61,25.61,0,0,1-3.33-1c-15.26-5.78-25.24-16.57-30.34-32a45.49,45.49,0,0,1-1.5-6.81c-1.82-11.18-4.28-22.23-7.17-33.17a289.62,289.62,0,0,0-12-36.77,241,241,0,0,0-13.36-27.36c-.36-.65-.75-1.28-1.14-1.91a.93.93,0,0,0-1.35-.36c-2.43,1-4.88,2.05-7.28,3.15a35.86,35.86,0,0,0-8.44,5.61,67.7,67.7,0,0,0-14.87,18.45,48.17,48.17,0,0,0-3.73,9.08,125.31,125.31,0,0,0-3.88,16.68c-.66,4-1.23,7.94-1.75,11.93-.37,2.83-.61,5.68-.88,8.53-.34,3.58-.65,7.16-1,10.75-.06.63-.11,1.26-.15,1.9-.2,3-.43,5.91-.57,8.87-.29,6.45-.6,12.91-.79,19.36-.24,8-.36,16.09-.54,24.14,0,.42-.05.85,0,1.27a4.92,4.92,0,0,1-1.76,3.92,15.34,15.34,0,0,1-4.26,2.71,42.26,42.26,0,0,1-6.87,2.45A79.32,79.32,0,0,1,182,431.34a92.6,92.6,0,0,1-11.41.5,82.1,82.1,0,0,1-12.32-1.19,32.16,32.16,0,0,1-5.2-1.39,19.67,19.67,0,0,1-6.59-3.73c-1.43-1.26-2.84-2.55-4.15-3.93A27.48,27.48,0,0,1,136,410.73a54,54,0,0,1-2.33-21,95,95,0,0,1,2.72-15.61c1.77-6.75,3.4-13.54,5.18-20.28a189.16,189.16,0,0,1,12.63-34.51,141.54,141.54,0,0,1,15.12-24.56,89.64,89.64,0,0,1,42.37-30.6,93.22,93.22,0,0,1,16.57-4.3,110,110,0,0,1,26.27-1.06c.85.08,1.69.13,2.54.18a50.59,50.59,0,0,1,30.14,12A70.13,70.13,0,0,1,301,286.61a107.16,107.16,0,0,1,11.37,23.69,223.62,223.62,0,0,1,8.48,32.84c.85,4.79,1.57,9.61,2.29,14.42.26,1.78.42,3.57.61,5.36.29,2.63.54,5.26.84,7.89.24,2.1.53,4.2.82,6.3A1.9,1.9,0,0,0,326,378.5Z"/><path class="cls-2" d="M728.71,174.94c-.93,26-1.07,56.78-.62,87.6,0,3.28.24,6.56.38,9.84,0,1.05.11,2.11.14,3.17.18,5.72.61,11.41,1.19,17.1.3,2.84.5,5.7.85,8.53.39,3.26.82,6.51,1.37,9.75,1,5.94,2.17,11.86,3.69,17.7a109,109,0,0,0,4.94,15.05,78.64,78.64,0,0,0,4.69,9.36c.7,1.18,1.47,2.33,2.22,3.48A36,36,0,0,0,762.08,369a31.34,31.34,0,0,0,7.19,2.46,55.7,55.7,0,0,0,7.79,1.47,13.43,13.43,0,0,1,2.48.55,5.65,5.65,0,0,1,2.45,1.41,4.88,4.88,0,0,1,1.48,2.74,8.67,8.67,0,0,1-.52,4.67,19.76,19.76,0,0,1-2.47,4.42,32.54,32.54,0,0,1-8.17,7.92,48.62,48.62,0,0,1-20.13,8.14,65.18,65.18,0,0,1-11.06.85,47.45,47.45,0,0,1-14.64-2.53,70.91,70.91,0,0,1-14.91-7,44.07,44.07,0,0,1-16.1-17.16,85.26,85.26,0,0,1-8.8-25.37,112,112,0,0,1-1.49-16.74c0-.64-.08-1.27-.14-1.9a.3.3,0,0,0-.22-.2c-.18,0-.44,0-.52.13-.52.8-1,1.62-1.49,2.43a142,142,0,0,1-22.3,28.8,114.2,114.2,0,0,1-22,17.19,92.61,92.61,0,0,1-28.26,11,69.13,69.13,0,0,1-24.63.78A34.22,34.22,0,0,1,574,389a43,43,0,0,1-8.66-6.4,73.89,73.89,0,0,1-13.3-16.92,102.61,102.61,0,0,1-9.44-22.13,134.13,134.13,0,0,1-4-18.27,147.6,147.6,0,0,1-1.72-27.22,117.36,117.36,0,0,1,7.49-38.45,74.2,74.2,0,0,1,14.18-23.52,59.14,59.14,0,0,1,30.87-18.41,66.85,66.85,0,0,1,21.44-1.45c15.2,1.37,29.34,6.08,42.76,13.2q6.32,3.34,12.3,7.25c.71.47,1.42.93,2.14,1.38s1.17.13,1.29-.72c0-.31.1-.62.12-.94.29-3.59.56-7.18.86-10.76s.66-7.17,1-10.76q.36-4.11.66-8.22c.3-3.91.57-7.82.85-11.72q.48-6.66,1-13.31c.06-.73.13-1.47.17-2.21.2-3.28.39-6.55.57-9.83q.38-7,.72-14,.29-5.55.53-11.1c.58-13.86,1.16-27.72.83-41.6-.05-2.12-.1-4.24-.3-6.34a34.13,34.13,0,0,1,5-21.57,67.67,67.67,0,0,1,7-9.46,74.17,74.17,0,0,1,29.83-20.95,26.14,26.14,0,0,1,6.72-1.82,5.9,5.9,0,0,1,1.26,0,2,2,0,0,1,1.35.75,7.17,7.17,0,0,1,1.26,2.55,36.92,36.92,0,0,1,1.27,6.85c.47,4.64.63,9.29.74,14,.36,16.2.06,32.4-.22,48.6-.15,8.47-.41,16.94-.66,25.41C729.5,150.63,729.18,160.37,728.71,174.94ZM589.63,316.18c0,4.51,0,8.63.34,12.76a94.64,94.64,0,0,0,1.47,11,40.38,40.38,0,0,0,2.47,8.18,13.28,13.28,0,0,0,1.91,3.28,4.79,4.79,0,0,0,2.3,1.63,14.06,14.06,0,0,0,7.2.35,22.16,22.16,0,0,0,7.23-3.16,45.31,45.31,0,0,0,6-4.76c3.33-3.1,6.42-6.44,9.48-9.81a91.46,91.46,0,0,0,10-13.52,192.14,192.14,0,0,0,13.71-26.46,113.37,113.37,0,0,0,4.87-13.75,63.66,63.66,0,0,0,2-10.59,14.43,14.43,0,0,0-.34-4.73,3.85,3.85,0,0,0-2.84-3.12c-1.93-.53-3.86-1.09-5.82-1.53a64.43,64.43,0,0,0-13.82-1.83c-2,0-4,0-6,.1a49.23,49.23,0,0,0-20.41,5.34,24.52,24.52,0,0,0-9.47,8.26,34.74,34.74,0,0,0-3.81,7.3,91.58,91.58,0,0,0-5.06,19.62C590.14,306,589.94,311.28,589.63,316.18Z"/><path class="cls-2" d="M27.46,380.29c.14-5.64.29-11.25.4-16.86a20.64,20.64,0,0,1,.53-3.76,127.38,127.38,0,0,1,7.76-25.11,87.09,87.09,0,0,1,12.6-20.85,62.9,62.9,0,0,1,6.57-6.89,38.66,38.66,0,0,1,10.94-6.93,45.42,45.42,0,0,1,6.67-2c6.57-1.63,13.17-3.12,19.85-4.23a86.13,86.13,0,0,1,17.72-1,37.6,37.6,0,0,1,6.93.76,23.82,23.82,0,0,1,6.55,2.33,29,29,0,0,1,3.18,2.08c3.27,2.47,4.34,5.87,3.93,9.82a28.82,28.82,0,0,1-2.3,8.55,92.23,92.23,0,0,0-5.07,17c-1,4.65-1.76,9.36-2.33,14.08-.36,2.94-.62,5.9-.76,8.86a229.57,229.57,0,0,0,0,23.17c.21,3.8.59,7.59,1,11.38A111.52,111.52,0,0,0,125,407.41,73.93,73.93,0,0,0,130.14,421a52.54,52.54,0,0,0,7.35,11.08,30.1,30.1,0,0,0,17.22,10,82.73,82.73,0,0,0,18,1.85,51.52,51.52,0,0,0,17.67-3.38A83.89,83.89,0,0,0,217.15,424a46.25,46.25,0,0,1,14.45-9,18.78,18.78,0,0,1,6.76-1.59,17.73,17.73,0,0,1,2.53.1,4.22,4.22,0,0,1,3.58,2.76,7.41,7.41,0,0,1,.36,4.67,16.56,16.56,0,0,1-1.33,3.89c-1,2-2,4-3.2,5.84A87.19,87.19,0,0,1,222.8,451,118.36,118.36,0,0,1,191,470.48,144.87,144.87,0,0,1,162.79,479q-7.65,1.51-15.37,2.31a173.48,173.48,0,0,1-19.34.85c-4.78,0-9.53-.36-14.26-.85A163.51,163.51,0,0,1,94.43,478,154.16,154.16,0,0,1,77,473.21,95.59,95.59,0,0,1,62.81,467,58.31,58.31,0,0,1,37.26,439.6,90.17,90.17,0,0,1,31,420.67a156.22,156.22,0,0,1-2.72-19.15C27.67,394.44,27.69,387.35,27.46,380.29Z"/><path class="cls-3" d="M615.4,453.5c-13.5,0-29.28,0-45.06.16-11.43.09-22.87.35-34.3.6-7,.15-14,.39-21,.63-5.61.19-11.22.39-16.83.64-6.34.29-12.69.65-19,1l-1.27.06c-5.82.28-11.64.52-17.45.86-4.65.26-9.3.65-13.94,1-4.12.29-8.24.53-12.36.84s-8,.65-12,1c-3.06.26-6.11.52-9.17.81-4.22.38-8.43.79-12.65,1.18-3,.28-5.9.53-8.85.83s-5.89.64-8.84,1c-2.52.27-5.05.55-7.58.78-3.27.31-6.54.55-9.81.85s-6.74.67-10.11,1c-2.42.23-4.85.44-7.27.64-3.49.29-7,.55-10.45.83l-12.35,1c-.42,0-.84.09-1.26.12-4.12.28-8.24.53-12.36.84-3.9.3-7.8.67-11.71,1l-7.91.65c-3.48.28-7,.54-10.45.84s-6.95.65-10.43,1-7.17.66-10.76.93c-4.64.35-9.29.65-13.94.93-2.22.13-4.44.17-6.67.2a17.81,17.81,0,0,1-2.52-.19c-.78-.1-1.26-.46-1.17-.78a1.37,1.37,0,0,1,.87-.84,33.4,33.4,0,0,1,5.41-1.82c5.83-1.54,11.7-2.88,17.65-3.93,7.91-1.41,15.82-2.88,23.74-4.24,7-1.2,14-2.28,21-3.41,5.95-1,11.9-2,17.86-2.89,4.81-.75,9.63-1.43,14.44-2.15,3.56-.53,7.11-1.1,10.67-1.62s7.12-1,10.68-1.52l11-1.54c2.2-.31,4.39-.64,6.6-.94,4.29-.59,8.59-1.19,12.89-1.76,4-.52,8-1,12-1.51l12.28-1.6c2-.26,4-.53,6-.77,4.31-.51,8.62-1,12.93-1.49s8.82-1.11,13.23-1.63c2.63-.31,5.27-.56,7.9-.85,2.84-.31,5.67-.65,8.51-1,2.42-.27,4.84-.56,7.26-.8,3-.3,5.91-.55,8.85-.85s6.1-.68,9.16-1q3.15-.33,6.32-.62l9.49-.83,10.43-1c2.64-.25,5.27-.49,7.91-.71,3.59-.29,7.18-.55,10.76-.84l12.67-1c.42,0,.84-.09,1.26-.12,4.44-.28,8.88-.54,13.32-.84,4.86-.32,9.71-.66,14.57-1l.64,0,16.49-.81,7-.36c.64,0,1.27-.09,1.91-.11q13-.42,26-.81c4.56-.13,9.11-.19,13.66-.3,9.53-.22,19.06-.24,28.59.05,2,.06,4,.16,6,.16,7.1,0,14.18.52,21.26.87,3.7.18,7.39.61,11.08.93l1.27.1c4.11.28,8.24.51,12.35.85,3.17.26,6.32.63,9.48,1,2.21.23,4.42.49,6.63.73,7.57.82,15.11,1.93,22.63,3.14,8.05,1.29,16.05,2.8,24,4.58a42.61,42.61,0,0,1,9,3.16,14,14,0,0,1,3.47,2.21c2.27,2.05,2.16,4.21-.32,6.09a14.78,14.78,0,0,1-3.63,1.95,43.22,43.22,0,0,1-9.82,2.46,100.39,100.39,0,0,1-20.28.82c-2.11-.12-4.23-.14-6.35-.16-6.78,0-13.56,0-20.33-.08-5.62-.06-11.23-.21-16.84-.31-4.66-.09-9.32-.16-14-.27s-9.52-.25-14.29-.38l-9.53-.23-14.6-.41-3.18-.09Z"/><path class="cls-2" d="M97,238c-4.56-.23-8.91-.25-13.21-.7a35.38,35.38,0,0,1-24.06-12.71,19.43,19.43,0,0,1-4.41-9.69A14.71,14.71,0,0,1,58,203.8a32,32,0,0,1,14.12-11.41,50.26,50.26,0,0,1,12.25-3.14,101.52,101.52,0,0,1,13.28-.84A92.58,92.58,0,0,1,115,189.89a85,85,0,0,1,17.34,5,62.42,62.42,0,0,1,8.24,4.07c1.35.82,2.64,1.75,3.92,2.69a16.06,16.06,0,0,1,3.12,3.15,10.85,10.85,0,0,1,1.6,10.78,20.3,20.3,0,0,1-3.46,6,31.12,31.12,0,0,1-6,5.59,51.08,51.08,0,0,1-18.35,8.33,80.66,80.66,0,0,1-14.43,2.05C103.56,237.67,100.18,237.86,97,238Z"/><path class="cls-3" d="M40.73,551.89H33.54V502.47h7.19Z"/><path class="cls-3" d="M59.5,551.89l-7.44-30.84h-.25v30.84h-6.2V502.47h8l7.13,31.72h.25V502.47h6.25v49.42Z"/><path class="cls-3" d="M84.71,518.49v-6.13a17.42,17.42,0,0,0-.1-2.13,2.43,2.43,0,0,0-.4-1.22,1.62,1.62,0,0,0-.94-.56,8.54,8.54,0,0,0-3.29,0,1.61,1.61,0,0,0-.9.56,2.43,2.43,0,0,0-.41,1.22,20.12,20.12,0,0,0-.09,2.13v4.88a5.88,5.88,0,0,0,.31,2.22,3.71,3.71,0,0,0,1.56,1.47,27.78,27.78,0,0,0,2.85,1.56c1.19.59,2.49,1.31,3.91,2.19a25.18,25.18,0,0,1,2.53,1.81,5.32,5.32,0,0,1,1.44,1.82,7.87,7.87,0,0,1,.63,2.38,32.52,32.52,0,0,1,.15,3.44v7.94a29.78,29.78,0,0,1-.4,5.5A5.85,5.85,0,0,1,90,550.73a5.75,5.75,0,0,1-3.12,1.44,31.66,31.66,0,0,1-5.19.35,29.46,29.46,0,0,1-5-.35,5.2,5.2,0,0,1-4.63-4.53,28.16,28.16,0,0,1-.44-5.57v-9.82h7v9.82a19.37,19.37,0,0,0,.09,2.1,2.74,2.74,0,0,0,.41,1.22,1.54,1.54,0,0,0,.91.59,6.59,6.59,0,0,0,1.59.16c1.34,0,2.18-.25,2.54-.75a6.68,6.68,0,0,0,.53-3.32v-7.44a12,12,0,0,0-.25-2.88A3.34,3.34,0,0,0,83,530.06c-.42-.29-.94-.61-1.57-1l-2-1.13c-.71-.39-1.43-.8-2.16-1.22s-1.38-.81-2-1.18a14.49,14.49,0,0,1-2.09-1.66A5.6,5.6,0,0,1,72,522.18a7.23,7.23,0,0,1-.53-2.13,26.83,26.83,0,0,1-.13-2.94v-4.75a29.77,29.77,0,0,1,.41-5.51,6.18,6.18,0,0,1,1.5-3.19,5.45,5.45,0,0,1,3.07-1.47,31.08,31.08,0,0,1,5.16-.34,31.24,31.24,0,0,1,5.16.34,5.61,5.61,0,0,1,3.09,1.47,6.06,6.06,0,0,1,1.54,3.19,29.9,29.9,0,0,1,.4,5.51v6.13Z"/><path class="cls-3" d="M111.17,508.48h-5.38v43.41h-7.2V508.48H93.15v-6h18Z"/><path class="cls-3" d="M121.3,551.89h-7.19V502.47h7.19Z"/><path class="cls-3" d="M142.19,508.48h-5.38v43.41h-7.19V508.48h-5.44v-6h18Z"/><path class="cls-3" d="M155,552.52a30.63,30.63,0,0,1-5.1-.35,5.72,5.72,0,0,1-3.09-1.44,6,6,0,0,1-1.57-3.16,27.77,27.77,0,0,1-.43-5.5v-39.6H152v39.6a14.57,14.57,0,0,0,.12,2.1,2.65,2.65,0,0,0,.44,1.18,1.63,1.63,0,0,0,.94.57,8.24,8.24,0,0,0,3.13,0,1.66,1.66,0,0,0,.94-.57,2.65,2.65,0,0,0,.43-1.18,13.06,13.06,0,0,0,.13-2.1v-39.6h7v39.6a27.77,27.77,0,0,1-.43,5.5,6.09,6.09,0,0,1-1.57,3.16,5.72,5.72,0,0,1-3.09,1.44A30.18,30.18,0,0,1,155,552.52Z"/><path class="cls-3" d="M185.6,508.48h-5.38v43.41H173V508.48h-5.44v-6h18Z"/><path class="cls-3" d="M207.5,542.07a29.65,29.65,0,0,1-.41,5.5,5.67,5.67,0,0,1-1.57,3.16,5.92,5.92,0,0,1-3.15,1.44,38.73,38.73,0,0,1-10.39,0,5.15,5.15,0,0,1-4.66-4.6,29.78,29.78,0,0,1-.4-5.5V512.23a29.28,29.28,0,0,1,.4-5.47,5.16,5.16,0,0,1,4.66-4.57,39.86,39.86,0,0,1,10.39,0,5.92,5.92,0,0,1,3.15,1.44,5.65,5.65,0,0,1,1.57,3.13,29.14,29.14,0,0,1,.41,5.47Zm-7.26-29.84a18.46,18.46,0,0,0-.09-2,2.29,2.29,0,0,0-.44-1.19,1.79,1.79,0,0,0-.94-.56,5.93,5.93,0,0,0-1.53-.16c-1.34,0-2.19.25-2.57.75a6,6,0,0,0-.56,3.19v29.84a19.37,19.37,0,0,0,.09,2.1,2.51,2.51,0,0,0,.44,1.22,1.68,1.68,0,0,0,.94.59,6.34,6.34,0,0,0,1.53.16,7.15,7.15,0,0,0,1.63-.16,1.63,1.63,0,0,0,1-.63,2.64,2.64,0,0,0,.44-1.25,18.46,18.46,0,0,0,.09-2Z"/><path class="cls-2" d="M249.59,502.47v49.42h-5.88V517h-.25l-4.56,34.9h-6.45l-4.56-35.15h-.25v35.15h-5.95V502.47h10.07l3.76,33.22h.25l3.81-33.22Z"/><path class="cls-2" d="M264.23,552.52a30.46,30.46,0,0,1-5.1-.35,5.76,5.76,0,0,1-3.1-1.44,6,6,0,0,1-1.56-3.16,27.66,27.66,0,0,1-.44-5.5v-39.6h7.2v39.6a14.57,14.57,0,0,0,.12,2.1,2.54,2.54,0,0,0,.44,1.18,1.63,1.63,0,0,0,.94.57,8.19,8.19,0,0,0,3.12,0,1.63,1.63,0,0,0,.94-.57,2.54,2.54,0,0,0,.44-1.18,14.34,14.34,0,0,0,.13-2.1v-39.6h7v39.6a26.92,26.92,0,0,1-.44,5.5,6,6,0,0,1-1.56,3.16,5.72,5.72,0,0,1-3.1,1.44A30,30,0,0,1,264.23,552.52Z"/><path class="cls-2" d="M292.75,551.89l-7.44-30.84h-.25v30.84h-6.19V502.47h7.94l7.13,31.72h.25V502.47h6.26v49.42Z"/><path class="cls-2" d="M312.58,551.89h-7.19V502.47h7.19Z"/><path class="cls-2" d="M330.22,523.43v-11.2a18.46,18.46,0,0,0-.09-2,2.29,2.29,0,0,0-.44-1.19,1.75,1.75,0,0,0-.94-.56,5.93,5.93,0,0,0-1.53-.16,6.26,6.26,0,0,0-1.6.16,1.71,1.71,0,0,0-.94.59,2.38,2.38,0,0,0-.43,1.22,15.37,15.37,0,0,0-.1,2v29.84a16.78,16.78,0,0,0,.1,2.1,2.42,2.42,0,0,0,.43,1.22,1.71,1.71,0,0,0,.94.59,6.75,6.75,0,0,0,1.6.16,6.4,6.4,0,0,0,1.53-.16,1.68,1.68,0,0,0,.94-.59,2.51,2.51,0,0,0,.44-1.22,19.37,19.37,0,0,0,.09-2.1V530.62h6.94v11.45a30.33,30.33,0,0,1-.4,5.57,5.65,5.65,0,0,1-1.54,3.12,5.82,5.82,0,0,1-3.06,1.41,29,29,0,0,1-4.94.35,31.49,31.49,0,0,1-5.19-.35,5.75,5.75,0,0,1-3.13-1.44,5.84,5.84,0,0,1-1.53-3.16,28.8,28.8,0,0,1-.41-5.5V512.23a26.61,26.61,0,0,1,.44-5.44,5.89,5.89,0,0,1,1.59-3.16,6,6,0,0,1,3.16-1.44,30.72,30.72,0,0,1,5.07-.34,29.11,29.11,0,0,1,4.94.34,5.7,5.7,0,0,1,3.06,1.44,5.82,5.82,0,0,1,1.54,3.13,29.28,29.28,0,0,1,.4,5.47v11.2Z"/><path class="cls-2" d="M348.8,551.89h-7.2V502.47h7.2Z"/><path class="cls-2" d="M360.87,533.19v18.7h-7.19V502.47h10.25a31.7,31.7,0,0,1,5.2.35,6.12,6.12,0,0,1,3.16,1.41,5.49,5.49,0,0,1,1.56,3,27.34,27.34,0,0,1,.41,5.29v10.57a25.86,25.86,0,0,1-.44,5.31,5.68,5.68,0,0,1-1.6,3.07,5.8,5.8,0,0,1-3.16,1.37,33.92,33.92,0,0,1-5.13.32Zm0-24.46v18.64h3.06a6.32,6.32,0,0,0,1.57-.16,1.55,1.55,0,0,0,.94-.59,2.94,2.94,0,0,0,.44-1.22,13.89,13.89,0,0,0,.12-2V512.55a16.82,16.82,0,0,0-.09-1.94,2.43,2.43,0,0,0-.41-1.16,1.6,1.6,0,0,0-.91-.56,6.51,6.51,0,0,0-1.66-.16Z"/><path class="cls-2" d="M390.46,551.89v-11h-6.07v11h-7V512.23a29.31,29.31,0,0,1,.41-5.44,5.84,5.84,0,0,1,1.53-3.16,5.67,5.67,0,0,1,3-1.44,28.48,28.48,0,0,1,4.91-.34,29.4,29.4,0,0,1,5.16.37,6.28,6.28,0,0,1,3.19,1.47,5.9,5.9,0,0,1,1.59,3.13,26.87,26.87,0,0,1,.44,5.41v39.66Zm-3.07-43.6a5.88,5.88,0,0,0-1.53.16,1.75,1.75,0,0,0-.94.56,2.29,2.29,0,0,0-.44,1.19,18.46,18.46,0,0,0-.09,2V535h6.07V512.23a13.69,13.69,0,0,0-.13-2,2.58,2.58,0,0,0-.44-1.19,1.62,1.62,0,0,0-.93-.56A6.32,6.32,0,0,0,387.39,508.29Z"/><path class="cls-2" d="M416.67,551.89H402.09V502.47h7.19v43.17h7.39Z"/><path class="cls-1" d="M450.07,541.76a27.72,27.72,0,0,1-.41,5.31,5.52,5.52,0,0,1-1.56,3.07,6.12,6.12,0,0,1-3.16,1.41,31.81,31.81,0,0,1-5.19.34H429.49V502.47h10.26a31.66,31.66,0,0,1,5.19.35,6.12,6.12,0,0,1,3.16,1.41,5.49,5.49,0,0,1,1.56,3,27.34,27.34,0,0,1,.41,5.29Zm-7.26-29.21a12.66,12.66,0,0,0-.12-1.94,2.91,2.91,0,0,0-.44-1.19,1.47,1.47,0,0,0-.91-.57,8.43,8.43,0,0,0-1.59-.12h-3.07v37h3.07a6.22,6.22,0,0,0,1.59-.16,1.6,1.6,0,0,0,.91-.56,2.7,2.7,0,0,0,.44-1.19,13.89,13.89,0,0,0,.12-2Z"/><path class="cls-1" d="M468.46,551.89H454.32V502.47h14.07v5.95h-6.88v7.19h6.7v5.69h-6.7v24.4h6.95Z"/><path class="cls-1" d="M486.6,551.89H472V502.47h7.2v43.17h7.38Z"/><path class="cls-1" d="M520,541.76a27.72,27.72,0,0,1-.41,5.31,5.52,5.52,0,0,1-1.56,3.07,6.09,6.09,0,0,1-3.16,1.41,31.81,31.81,0,0,1-5.19.34H499.42V502.47h10.26a31.66,31.66,0,0,1,5.19.35,6.09,6.09,0,0,1,3.16,1.41,5.49,5.49,0,0,1,1.56,3,27.34,27.34,0,0,1,.41,5.29Zm-7.26-29.21a12.66,12.66,0,0,0-.12-1.94,2.91,2.91,0,0,0-.44-1.19,1.47,1.47,0,0,0-.91-.57,8.36,8.36,0,0,0-1.59-.12h-3.07v37h3.07a6.17,6.17,0,0,0,1.59-.16,1.6,1.6,0,0,0,.91-.56,2.7,2.7,0,0,0,.44-1.19,13.89,13.89,0,0,0,.12-2Z"/><path class="cls-1" d="M538.39,551.89H524.25V502.47h14.08v5.95h-6.88v7.19h6.69v5.69h-6.69v24.4h6.94Z"/><path class="cls-1" d="M549.15,533.19v18.7H542V502.47h10.26a31.49,31.49,0,0,1,5.19.35,6,6,0,0,1,3.16,1.41,5.5,5.5,0,0,1,1.57,3,27.47,27.47,0,0,1,.4,5.29v10.57a26,26,0,0,1-.43,5.31,5.17,5.17,0,0,1-4.76,4.44,33.92,33.92,0,0,1-5.13.32Zm0-24.46v18.64h3.06a6.32,6.32,0,0,0,1.57-.16,1.58,1.58,0,0,0,.94-.59,3,3,0,0,0,.43-1.22,12.44,12.44,0,0,0,.13-2V512.55a14.56,14.56,0,0,0-.1-1.94,2.33,2.33,0,0,0-.4-1.16,1.6,1.6,0,0,0-.91-.56,6.57,6.57,0,0,0-1.66-.16Z"/><path class="cls-1" d="M586.12,542.07a29.65,29.65,0,0,1-.41,5.5,5.73,5.73,0,0,1-1.56,3.16,6,6,0,0,1-3.16,1.44,38.73,38.73,0,0,1-10.39,0,5.18,5.18,0,0,1-4.66-4.6,29.78,29.78,0,0,1-.4-5.5V512.23a29.28,29.28,0,0,1,.4-5.47,5.18,5.18,0,0,1,4.66-4.57,39.86,39.86,0,0,1,10.39,0,6,6,0,0,1,3.16,1.44,5.7,5.7,0,0,1,1.56,3.13,29.14,29.14,0,0,1,.41,5.47Zm-7.26-29.84a18.46,18.46,0,0,0-.09-2,2.29,2.29,0,0,0-.44-1.19,1.75,1.75,0,0,0-.94-.56,5.93,5.93,0,0,0-1.53-.16c-1.34,0-2.19.25-2.57.75a6,6,0,0,0-.56,3.19v29.84a19.37,19.37,0,0,0,.09,2.1,2.51,2.51,0,0,0,.44,1.22,1.68,1.68,0,0,0,.94.59,6.4,6.4,0,0,0,1.53.16,7.15,7.15,0,0,0,1.63-.16,1.6,1.6,0,0,0,1-.63,2.64,2.64,0,0,0,.44-1.25,18.46,18.46,0,0,0,.09-2Z"/><path class="cls-1" d="M597.56,551.89h-7.19V502.47h10.26a31.66,31.66,0,0,1,5.19.35,6,6,0,0,1,3.16,1.44,5.66,5.66,0,0,1,1.56,3.06,27,27,0,0,1,.41,5.23v5.19a10.27,10.27,0,0,1-.41,3.16,5.66,5.66,0,0,1-1.06,2A4.17,4.17,0,0,1,608,524a9,9,0,0,1-1.53.53v.25a9.18,9.18,0,0,1,1.81.66,3.87,3.87,0,0,1,1.41,1.25,6.33,6.33,0,0,1,.91,2.16,15.49,15.49,0,0,1,.31,3.38v19.7h-7.26V531.06a5.45,5.45,0,0,0-.5-2.78q-.5-.78-2.37-.78h-3.26Zm0-30.09h3.26a2.94,2.94,0,0,0,2.31-.69,4.1,4.1,0,0,0,.56-2.5v-6.06a16,16,0,0,0-.09-1.91,2.49,2.49,0,0,0-.41-1.16,1.55,1.55,0,0,0-.94-.59,6.54,6.54,0,0,0-1.62-.16h-3.07Z"/><path class="cls-1" d="M630.4,508.48H625v43.41h-7.19V508.48h-5.44v-6h18Z"/><path class="cls-1" d="M647.35,551.89H633.22V502.47h14.07v5.95h-6.88v7.19h6.69v5.69h-6.69v24.4h6.94Z"/><path class="cls-3" d="M681.44,541.76a27.84,27.84,0,0,1-.4,5.31,5.52,5.52,0,0,1-1.57,3.07,6,6,0,0,1-3.16,1.41,31.64,31.64,0,0,1-5.19.34H660.86V502.47h10.26a31.49,31.49,0,0,1,5.19.35,6,6,0,0,1,3.16,1.41,5.5,5.5,0,0,1,1.57,3,27.47,27.47,0,0,1,.4,5.29Zm-7.25-29.21a11.35,11.35,0,0,0-.13-1.94,2.77,2.77,0,0,0-.44-1.19,1.45,1.45,0,0,0-.9-.57,8.47,8.47,0,0,0-1.6-.12h-3.06v37h3.06a6.26,6.26,0,0,0,1.6-.16,1.57,1.57,0,0,0,.9-.56,2.58,2.58,0,0,0,.44-1.19,12.44,12.44,0,0,0,.13-2Z"/><path class="cls-3" d="M699.83,551.89H685.7V502.47h14.07v5.95h-6.88v7.19h6.69v5.69h-6.69v24.4h6.94Z"/><path class="cls-3" d="M726.11,523.43v-11.2a18.1,18.1,0,0,0-.1-2,2.2,2.2,0,0,0-.44-1.19,1.76,1.76,0,0,0-.93-.56,6,6,0,0,0-1.54-.16,6.17,6.17,0,0,0-1.59.16,1.68,1.68,0,0,0-.94.59,2.38,2.38,0,0,0-.44,1.22,17.77,17.77,0,0,0-.09,2v29.84a19.37,19.37,0,0,0,.09,2.1,2.42,2.42,0,0,0,.44,1.22,1.68,1.68,0,0,0,.94.59,6.65,6.65,0,0,0,1.59.16,6.44,6.44,0,0,0,1.54-.16,1.69,1.69,0,0,0,.93-.59,2.42,2.42,0,0,0,.44-1.22,19,19,0,0,0,.1-2.1V530.62h6.94v11.45a30.18,30.18,0,0,1-.41,5.57,5.64,5.64,0,0,1-1.53,3.12,5.82,5.82,0,0,1-3.07,1.41,29,29,0,0,1-4.94.35,31.57,31.57,0,0,1-5.19-.35,5.78,5.78,0,0,1-3.13-1.44,5.84,5.84,0,0,1-1.53-3.16,29.65,29.65,0,0,1-.41-5.5V512.23a27.34,27.34,0,0,1,.44-5.44,5.83,5.83,0,0,1,1.6-3.16,5.92,5.92,0,0,1,3.16-1.44,30.67,30.67,0,0,1,5.06-.34,29.11,29.11,0,0,1,4.94.34,5.69,5.69,0,0,1,3.07,1.44,5.82,5.82,0,0,1,1.53,3.13,29.14,29.14,0,0,1,.41,5.47v11.2Z"/><path class="cls-3" d="M750.06,551.89v-11H744v11h-7V512.23a28.47,28.47,0,0,1,.41-5.44,5.84,5.84,0,0,1,1.53-3.16,5.67,5.67,0,0,1,3-1.44,28.56,28.56,0,0,1,4.91-.34,29.25,29.25,0,0,1,5.16.37,6.2,6.2,0,0,1,3.19,1.47,5.91,5.91,0,0,1,1.6,3.13,26.87,26.87,0,0,1,.44,5.41v39.66Zm-2.62-62.3h6.88l-6,10.38h-4.88Zm-.44,18.7a5.82,5.82,0,0,0-1.53.16,1.75,1.75,0,0,0-.94.56,2.2,2.2,0,0,0-.44,1.19,18.46,18.46,0,0,0-.09,2V535h6.06V512.23a13.89,13.89,0,0,0-.12-2,2.7,2.7,0,0,0-.44-1.19,1.62,1.62,0,0,0-.94-.56A6.29,6.29,0,0,0,747,508.29Z"/><path class="cls-3" d="M782.28,541.76a27.72,27.72,0,0,1-.41,5.31,5.52,5.52,0,0,1-1.56,3.07,6.12,6.12,0,0,1-3.16,1.41,31.81,31.81,0,0,1-5.19.34H761.7V502.47H772a31.66,31.66,0,0,1,5.19.35,6.12,6.12,0,0,1,3.16,1.41,5.49,5.49,0,0,1,1.56,3,27.34,27.34,0,0,1,.41,5.29ZM775,512.55a12.66,12.66,0,0,0-.12-1.94,2.91,2.91,0,0,0-.44-1.19,1.47,1.47,0,0,0-.91-.57,8.43,8.43,0,0,0-1.59-.12h-3.07v37H772a6.22,6.22,0,0,0,1.59-.16,1.6,1.6,0,0,0,.91-.56,2.7,2.7,0,0,0,.44-1.19,13.89,13.89,0,0,0,.12-2Z"/><path class="cls-3" d="M793.85,551.89h-7.19V502.47h7.19Z"/><path class="cls-3" d="M814.43,551.89H797.1v-6.25l9.95-37.16H798.1v-6h16.2v4.88l-9.69,38.35h9.82Z"/></svg>